<?xml version="1.0" standalone="no"?>
<!DOCTYPE svg PUBLIC "-//W3C//DTD SVG 20010904//EN"
 "http://www.w3.org/TR/2001/REC-SVG-20010904/DTD/svg10.dtd">
<svg version="1.0" xmlns="http://www.w3.org/2000/svg"
 width="1052.000000pt" height="1052.000000pt" viewBox="0 0 1052.000000 1052.000000"
 preserveAspectRatio="xMidYMid meet">
<metadata>
Created by potrace 1.11, written by Peter Selinger 2001-2013
</metadata>
<g transform="translate(0.000000,1052.000000) scale(0.100000,-0.100000)"
fill="#000000" stroke="none">
<path d="M1726 7763 c-2 -2 -201 -6 -442 -8 -414 -4 -477 -6 -514 -22 -8 -3
-17 -7 -20 -7 -17 -5 -59 -33 -81 -56 -25 -25 -85 -130 -74 -130 2 0 0 -11 -5
-26 -6 -14 -12 -39 -15 -57 -3 -18 -8 -45 -12 -62 -8 -37 -9 -46 -17 -115 -3
-30 -8 -75 -11 -100 -6 -47 -10 -90 -19 -215 -3 -38 -8 -86 -11 -105 -2 -19
-7 -53 -9 -75 -3 -22 -8 -58 -10 -80 -7 -50 -17 -202 -21 -320 -2 -49 -7 -162
-11 -250 -4 -88 -7 -190 -8 -227 -1 -36 -5 -64 -9 -61 -4 2 -5 -8 -1 -23 4
-16 7 -34 6 -41 -1 -7 -2 -30 -2 -50 0 -21 -1 -54 -1 -73 0 -19 0 -46 0 -60 1
-14 1 -34 0 -45 0 -28 0 -35 3 -77 2 -20 1 -35 -2 -33 -7 5 -4 -250 4 -263 3
-6 2 -13 -3 -17 -6 -3 -8 -12 -5 -20 8 -21 10 -104 2 -99 -6 4 -4 -18 5 -88 3
-16 1 -28 -2 -28 -7 0 -6 -39 3 -100 8 -51 16 -229 21 -440 5 -175 9 -246 19
-315 13 -93 16 -118 21 -195 12 -170 14 -196 21 -260 10 -104 12 -123 19 -168
9 -55 13 -77 15 -77 2 0 8 -26 15 -70 9 -61 53 -177 78 -205 38 -43 80 -67
132 -75 28 -5 57 -10 65 -11 24 -5 111 -16 165 -20 28 -2 200 -4 383 -4 182 0
332 -2 332 -6 0 -3 -9 -24 -20 -46 -11 -23 -20 -45 -20 -50 0 -4 -11 -32 -25
-62 -24 -53 -47 -105 -50 -116 -1 -3 -9 -23 -19 -45 -14 -32 -18 -80 -22 -239
-3 -110 -7 -203 -10 -207 -2 -4 1 -11 8 -16 20 -12 418 -10 419 2 2 14 -1 128
-6 268 -3 87 -1 117 8 118 10 1 3930 0 4025 -1 18 0 31 -4 27 -10 -3 -5 -8
-91 -11 -192 l-5 -183 214 -1 213 -1 -2 66 c-2 36 -4 131 -6 211 -2 80 -6 147
-9 150 -9 8 -139 337 -139 352 0 10 49 13 243 14 133 0 265 3 292 7 58 9 90
15 90 17 0 2 65 12 83 13 6 0 12 3 12 7 0 3 8 6 18 7 31 2 143 51 215 94 65
39 196 159 245 224 12 17 34 44 48 62 14 18 24 33 23 35 -1 2 9 21 23 43 13
22 40 69 59 105 19 36 37 67 42 68 4 2 7 8 7 14 0 11 56 124 190 383 87 168
194 354 231 399 5 6 35 47 67 91 100 137 180 192 339 235 43 12 87 23 98 25
11 1 49 13 85 25 36 12 90 24 120 25 l56 4 2 -32 c4 -48 39 -110 79 -137 20
-14 40 -26 45 -26 4 -1 11 -3 16 -4 23 -7 163 0 181 9 28 16 52 99 56 199 2
46 6 86 9 89 3 3 76 6 163 6 177 -1 207 8 222 62 11 40 11 653 0 679 -25 60
-29 61 -187 63 -81 0 -150 2 -153 2 -4 1 -7 16 -7 34 0 93 -52 256 -89 275
-27 14 -213 9 -243 -7 -35 -19 -80 -62 -80 -78 0 -7 -4 -13 -8 -13 -4 0 -7
-21 -7 -47 2 -64 -2 -72 -33 -71 -15 0 -31 -1 -37 -3 -14 -4 -78 9 -160 33
-38 11 -74 21 -80 22 -5 1 -16 5 -22 9 -7 5 -13 5 -13 1 0 -3 -7 -1 -15 6 -8
7 -15 9 -15 4 0 -5 -4 -4 -8 1 -4 6 -20 16 -36 23 -85 38 -202 137 -303 257
-52 63 -133 181 -133 195 0 5 -4 10 -9 10 -5 0 -11 8 -14 18 -4 9 -20 40 -37
67 -16 28 -41 73 -55 100 -14 28 -30 57 -35 65 -5 8 -56 112 -114 230 -72 146
-126 242 -170 300 -132 176 -385 406 -506 462 -62 29 -110 47 -110 43 0 -3
-12 0 -27 6 -16 6 -41 13 -58 15 -70 10 -5159 26 -5169 17z"/>
</g>
</svg>
