<?xml version="1.0" encoding="UTF-8"?>
<!DOCTYPE svg PUBLIC "-//W3C//DTD SVG 1.1//EN" "http://www.w3.org/Graphics/SVG/1.1/DTD/svg11.dtd">
<!-- Creator: CorelDRAW -->
<svg xmlns="http://www.w3.org/2000/svg" xml:space="preserve" width="297mm" height="210mm" style="shape-rendering:geometricPrecision; text-rendering:geometricPrecision; image-rendering:optimizeQuality; fill-rule:evenodd; clip-rule:evenodd"
viewBox="0 0 297 210"
 xmlns:xlink="http://www.w3.org/1999/xlink">
 <defs>
  <style type="text/css">
   <![CDATA[
    .fil4 {fill:#71625B}
    .fil2 {fill:#75C5F0}
    .fil0 {fill:#8F5444}
    .fil1 {fill:#B7673C}
    .fil3 {fill:#E77817}
    .fil6 {fill:#00B7A5}
    .fil7 {fill:#0794A3}
    .fil13 {fill:#326CE5}
    .fil8 {fill:#3B4D56}
    .fil9 {fill:#88A1A8}
    .fil10 {fill:#A4B7BE}
    .fil12 {fill:#FEFEFE}
    .fil11 {fill:white;fill-rule:nonzero}
    .fil5 {fill:white;fill-opacity:0.501961}
   ]]>
  </style>
 </defs>
 <g id="Layer_x0020_1">
  <metadata id="CorelCorpID_0Corel-Layer"/>
  <polygon class="fil0" points="44.1983,191.471 56.3159,191.518 55.8872,179.281 44.6463,179.327 "/>
  <polygon class="fil0" points="170.173,191.248 182.291,191.295 181.862,179.058 170.621,179.104 "/>
  <polygon class="fil1" points="44.2141,180.273 182.103,180.32 177.226,168.083 49.3128,168.129 "/>
  <path class="fil2" d="M12.4114 88.4537l0 28.3777c0.8807,1.3879 0.4757,17.0975 1.0961,20.5095 1.1431,6.286 0.8218,13.4487 2.0491,19.5567 0.5572,2.773 1.148,6.5851 2.4568,8.5073 2.0272,2.9771 3.5209,2.5103 7.4257,3.216 4.1444,0.749 15.9125,0.4512 20.8321,0.4512l139.953 0c15.0931,0 22.497,-4.958 28.1174,-14.5202 4.9296,-8.3867 8.661,-17.9505 14.0036,-25.9832 4.2393,-6.3738 6.2168,-9.0982 12.2025,-10.5399 12.9523,-3.1193 2.7081,-2.154 15.9974,-2.154l0 -28.3778c-11.9892,-0.637 -4.6288,1.4224 -15.7619,-1.9354 -11.6012,-4.3801 -18.0852,-20.6221 -23.5302,-31.6129 -2.6847,-5.4194 -9.867,-12.502 -14.5782,-15.8054 -6.7646,-4.743 -12.8964,-3.5426 -23.8675,-3.5426 -18.2671,0 -35.9873,-0.3225 -54.498,-0.3225l-65.7846 0c-8.5582,0 -16.6459,0.3225 -24.8305,0.3225 -10.4142,0 -15.3606,-1.1203 -17.3453,7.8075 -1.6992,7.6428 -1.4734,14.3907 -2.7166,22.4363 -0.3767,2.4376 -1.018,23.2889 -1.2213,23.6092z"/>
  <path class="fil2" d="M250.804 84.9777l0 30.9575c0,2.595 2.0285,5.482 4.5146,5.482l3.8548 0c2.4999,0 2.5067,-5.7865 2.5067,-8.5658l-5.1447 0c-1.3275,0 -0.5821,1.2067 -0.5821,-0.1889l0.0103 -21.5578c-0.0937,-1.3091 -0.1867,0.1654 2.2295,-0.4834l4.8222 0c0,-2.3757 -0.9833,-9.5132 -3.197,-9.5132l-4.4997 0c-2.2996,0 -4.5146,2.3145 -4.5146,3.8696z"/>
  <g id="_236950040">
   <path id="_236950568" class="fil3" d="M272.946 92.7297l0 16.8762c0,2.0744 -0.9134,3.2455 -2.9396,3.2455l-24.3188 0 0 -22.718 24.9721 0c1.0692,0 2.2863,1.2191 2.2863,2.5963z"/>
   <ellipse id="_236950496" class="fil4" cx="255.141" cy="103.284" rx="1.72274" ry="1.72125"/>
   <ellipse id="_236950424" class="fil4" cx="249.495" cy="94.7649" rx="1.99543" ry="1.9937"/>
   <ellipse id="_236950352" class="fil4" cx="258.426" cy="108.357" rx="1.63665" ry="1.63523"/>
   <ellipse id="_236950280" class="fil4" cx="267.716" cy="96.5018" rx="2.45438" ry="2.45225"/>
   <ellipse id="_236950208" class="fil4" cx="257.566" cy="97.9268" rx="2.45438" ry="2.45225"/>
   <ellipse id="_236950136" class="fil4" cx="249.667" cy="107.841" rx="2.45438" ry="2.45225"/>
   <ellipse id="_236950064" class="fil4" cx="264.25" cy="104.119" rx="3.43122" ry="3.42824"/>
  </g>
  <path class="fil5" d="M19.4065 89.8468l0 24.956c0.7816,1.2206 0.4222,15.036 0.9728,18.0366 1.0145,5.528 0.7293,11.8271 1.8186,17.1986 0.4945,2.4386 1.0188,5.7911 2.1804,7.4815 1.7991,2.6182 3.1248,2.2076 6.5903,2.8282 3.6782,0.6587 14.1225,0.3968 18.4886,0.3968l124.21 0c13.3953,0 27.1443,-3.9013 32.1325,-12.3105 4.375,-7.3754 7.6867,-15.7861 12.4282,-22.8502 3.7624,-5.6053 5.6841,-7.4485 10.8299,-9.269 6.7461,-2.3868 9.9956,-3.2495 16.63,-3.4633l0 -22.7182c-10.6405,-0.5602 -6.5404,0.5819 -16.421,-2.371 -10.2962,-3.8519 -16.0508,-18.1356 -20.8832,-27.8011 -8.5333,-19.1076 -30.7298,-17.3387 -41.2989,-17.474 -16.2121,0 -31.939,-0.2836 -48.3673,-0.2836l-58.3843 0c-7.5955,0 -14.7734,0.2836 -22.0372,0.2836 -9.2427,0 -13.6326,-0.9852 -15.3941,6.8661 -1.508,6.7213 -1.3076,12.6555 -2.411,19.7311 -0.3343,2.1437 -0.9035,20.4807 -1.0839,20.7624z"/>
  <g id="_236885528">
   <rect id="_236949896" class="fil6" x="134.511" y="71.9527" width="47.7369" height="27.7257"/>
   <rect id="_236949824" class="fil7" x="97.5149" y="71.9527" width="48.3994" height="27.7257"/>
   <rect id="_236886056" class="fil8" x="43.2592" y="56.0318" width="3.80296" height="28.174" rx="1.6434" ry="1.6434"/>
   <polygon id="_236885984" class="fil9" points="49.0151,80.619 41.6602,80.619 40.5705,81.0272 39.7533,81.4352 39.4809,81.8434 39.2085,82.2517 38.9361,82.6599 38.6637,83.0679 38.3913,83.8844 38.1189,85.5171 38.1189,100.62 62.9078,100.62 62.9078,84.7008 62.6354,83.4762 62.363,83.0679 62.0905,82.2517 61.5458,81.8434 61.2734,81.4352 60.7285,81.0272 59.6389,80.619 52.0116,80.619 "/>
   <rect id="_236885912" class="fil10" x="33.076" y="99.3321" width="55.0232" height="27.0128" rx="5.2346" ry="5.2346"/>
   <path id="_236885840" class="fil8" d="M33.076 120.444l-8.1636 0 -0.4082 0.4082 -0.4081 0.4082 -0.4082 1.2245 0 0.4082 0.4082 1.2245 0.4081 0.4082 0.4082 0.4082 0.8164 0.4082 2.449 0 0.8164 -0.4082c1.9746,1.7162 7.8894,34.142 11.0208,35.7033 47.4503,3.1189 95.7861,2.9297 144.855,0l11.0692 -24.2744 0.4082 -0.8163 0.4082 -0.8164 0.4081 -1.2245 0.4082 -1.2245 0.4082 -1.2246 0.4082 -1.6327 0.4081 -4.0817 2.4491 0 0.8164 -0.4082 0.4081 -0.4082 0.4082 -0.4082 0 -2.449 -0.4082 -0.8164 -0.8163 -0.4082 -4.8981 0 -15.1027 0 -18.368 0 -15.1026 0 -41.6342 0 -8.1636 0 -7.3473 0 -7.7554 0 -50.2059 0z"/>
   <rect id="_236885768" class="fil6" x="93.2907" y="98.1073" width="52.7794" height="22.3367"/>
   <rect id="_236885696" class="fil7" x="134.666" y="98.1073" width="52.7794" height="22.3367"/>
   <rect id="_236885624" class="fil8" x="39.4188" y="105.754" width="19.9079" height="3.23185" rx="1.4356" ry="1.4356"/>
   <rect id="_236885552" class="fil8" x="39.8346" y="111.368" width="19.9079" height="3.23185" rx="1.4356" ry="1.4356"/>
  </g>
  <path class="fil11" d="M57.6326 148.379l-2.9739 -4.8862 -1.8282 1.727 0 2.679c0,0.6488 -0.1726,1.15 -0.5138,1.4996 -0.3412,0.3497 -0.7329,0.5223 -1.1753,0.5223 -0.5181,0 -0.9267,-0.1726 -1.2258,-0.5181 -0.2948,-0.3454 -0.4422,-0.855 -0.4422,-1.529l0 -14.3641c0,-0.7498 0.1432,-1.3184 0.4337,-1.7101 0.2865,-0.3919 0.6993,-0.5856 1.2343,-0.5856 0.518,0 0.9266,0.177 1.2342,0.5307 0.3032,0.3539 0.4549,0.8762 0.4549,1.567l0 8.1677 3.7869 -3.9722c0.4718,-0.4971 0.8299,-0.8341 1.0741,-1.0151 0.2485,-0.1811 0.5477,-0.2696 0.9015,-0.2696 0.4213,0 0.7708,0.1348 1.0488,0.4001 0.2823,0.2696 0.4213,0.6024 0.4213,1.0068 0,0.4928 -0.4591,1.1499 -1.3691,1.9756l-1.7901 1.6386 3.4541 5.4297c0.2569,0.4044 0.438,0.7119 0.5476,0.9225 0.1137,0.2106 0.1684,0.4086 0.1684,0.5981 0,0.535 -0.1474,0.9562 -0.438,1.2637 -0.2907,0.3076 -0.6782,0.4633 -1.1542,0.4633 -0.4128,0 -0.7288,-0.1095 -0.9477,-0.3328 -0.2233,-0.2231 -0.5225,-0.6233 -0.9015,-1.2089zm8.8332 -10.2443l0 9.7389c0,0.674 -0.16,1.1836 -0.4803,1.529 -0.32,0.3455 -0.7286,0.5181 -1.2214,0.5181 -0.4971,0 -0.8972,-0.1769 -1.2048,-0.5307 -0.3075,-0.3537 -0.4634,-0.8593 -0.4634,-1.5164l0 -9.6379c0,-0.6697 0.1559,-1.1709 0.4634,-1.5079 0.3076,-0.337 0.7077,-0.5055 1.2048,-0.5055 0.4928,0 0.9014,0.1685 1.2214,0.5055 0.3203,0.337 0.4803,0.8088 0.4803,1.4069zm-1.6681 -3.4794c-0.4675,0 -0.8677,-0.1433 -1.2004,-0.4338 -0.3328,-0.2865 -0.5014,-0.6951 -0.5014,-1.2174 0,-0.4802 0.1728,-0.8719 0.514,-1.1795 0.3412,-0.3074 0.7372,-0.4633 1.1878,-0.4633 0.4382,0 0.8257,0.139 1.1627,0.4212 0.337,0.2781 0.5054,0.6867 0.5054,1.2216 0,0.5181 -0.1642,0.9225 -0.4928,1.2132 -0.3285,0.2907 -0.7204,0.438 -1.1753,0.438zm8.2099 3.4289l0 0.4086c0.5939,-0.7836 1.2427,-1.3564 1.9419,-1.7229 0.7035,-0.3665 1.5123,-0.5476 2.4263,-0.5476 0.8888,0 1.6807,0.1937 2.38,0.5814 0.6993,0.3832 1.2215,0.9309 1.567,1.6384 0.2233,0.4129 0.3663,0.8552 0.4337,1.3355 0.0634,0.476 0.097,1.0825 0.097,1.8239l0 6.2721c0,0.674 -0.1559,1.1836 -0.4633,1.529 -0.3076,0.3455 -0.7078,0.5181 -1.2047,0.5181 -0.5014,0 -0.9057,-0.1769 -1.2216,-0.5307 -0.3118,-0.3537 -0.4676,-0.8593 -0.4676,-1.5164l0 -5.615c0,-1.1121 -0.1559,-1.963 -0.4633,-2.5526 -0.3076,-0.5857 -0.9226,-0.8804 -1.8408,-0.8804 -0.6024,0 -1.15,0.1768 -1.6429,0.5349 -0.4929,0.358 -0.855,0.8508 -1.0826,1.4785 -0.1641,0.5012 -0.2484,1.4365 -0.2484,2.8138l0 4.2208c0,0.6824 -0.1602,1.192 -0.476,1.5333 -0.3159,0.3412 -0.7245,0.5138 -1.2258,0.5138 -0.4887,0 -0.8846,-0.1769 -1.2005,-0.5307 -0.3118,-0.3537 -0.4676,-0.8593 -0.4676,-1.5164l0 -9.7389c0,-0.6403 0.1391,-1.1206 0.4211,-1.4364 0.2781,-0.3159 0.6615,-0.476 1.146,-0.476 0.2947,0 0.5643,0.0716 0.8045,0.2106 0.2358,0.139 0.4295,0.3497 0.5728,0.6277 0.1432,0.2822 0.2148,0.6235 0.2148,1.0236zm21.4324 9.9115l0 -0.3327c-0.4509,0.518 -0.8973,0.9393 -1.3395,1.2636 -0.4382,0.3243 -0.9184,0.573 -1.4323,0.7414 -0.514,0.1686 -1.0741,0.2527 -1.6849,0.2527 -0.8045,0 -1.5501,-0.1726 -2.2367,-0.5138 -0.6867,-0.3413 -1.2848,-0.8257 -1.7861,-1.4617 -0.5012,-0.6319 -0.8804,-1.3775 -1.1416,-2.2325 -0.2569,-0.8552 -0.3874,-1.7819 -0.3874,-2.7759 0,-2.1062 0.5138,-3.7491 1.5416,-4.9242 1.0279,-1.1753 2.3843,-1.765 4.0607,-1.765 0.973,0 1.7902,0.1684 2.4559,0.5012 0.6655,0.3327 1.3183,0.8425 1.9503,1.5376l0 -4.9749c0,-0.6908 0.139,-1.2131 0.4128,-1.567 0.2778,-0.3537 0.6697,-0.5307 1.1793,-0.5307 0.5098,0 0.9015,0.1644 1.1796,0.4887 0.2738,0.3243 0.4128,0.8045 0.4128,1.4364l0 14.8568c0,0.6402 -0.1475,1.1247 -0.4424,1.4449 -0.299,0.3201 -0.6824,0.4801 -1.15,0.4801 -0.4591,0 -0.8423,-0.1684 -1.1415,-0.5012 -0.2991,-0.3327 -0.4506,-0.8045 -0.4506,-1.4238zm-6.626 -4.9495c0,0.9142 0.1432,1.6934 0.4253,2.3337 0.2822,0.6402 0.674,1.1247 1.1668,1.449 0.4929,0.3243 1.0321,0.4887 1.6176,0.4887 0.5898,0 1.133,-0.1559 1.6217,-0.4634 0.4887,-0.3076 0.8804,-0.7793 1.1711,-1.4195 0.2907,-0.6362 0.438,-1.4322 0.438,-2.3885 0,-0.893 -0.1473,-1.668 -0.438,-2.3126 -0.2907,-0.6444 -0.6866,-1.1373 -1.1838,-1.4785 -0.4969,-0.3412 -1.0445,-0.5138 -1.6342,-0.5138 -0.6192,0 -1.1711,0.1726 -1.6555,0.5223 -0.4845,0.3496 -0.8593,0.855 -1.1289,1.508 -0.2653,0.6529 -0.4001,1.4111 -0.4001,2.2746z"/>
  <g id="_236884640">
   <polygon id="_236885384" class="fil12" points="145.737,80.353 145.648,80.3826 145.5,80.4122 145.411,80.4418 145.323,80.4713 145.234,80.5009 145.145,80.5305 145.086,80.5601 145.057,80.5897 144.938,80.6193 144.849,80.6488 144.79,80.6784 144.731,80.708 144.672,80.7376 144.583,80.7672 144.553,80.7967 144.465,80.8263 144.435,80.8559 144.406,80.8855 144.317,80.9151 144.258,80.9447 144.169,80.9742 144.08,81.0038 144.051,81.0334 143.962,81.063 143.932,81.0926 143.873,81.1222 143.784,81.1517 143.755,81.1813 143.696,81.2109 143.636,81.2405 143.577,81.2701 143.488,81.2997 143.429,81.3292 143.37,81.3588 143.311,81.3884 143.222,81.418 143.193,81.4476 143.133,81.4771 143.074,81.5067 143.015,81.5363 142.926,81.5659 142.897,81.5955 142.808,81.6251 142.749,81.6546 142.69,81.6842 142.601,81.7138 142.542,81.7434 142.512,81.773 142.453,81.8025 142.394,81.8321 142.334,81.8617 142.275,81.8913 142.216,81.9209 142.127,81.9504 142.068,81.98 141.979,82.0096 141.92,82.0392 141.891,82.0688 141.802,82.0983 141.772,82.1279 141.684,82.1575 141.654,82.1871 141.565,82.2167 141.536,82.2462 141.447,82.2758 141.388,82.3054 141.328,82.335 141.269,82.3646 141.18,82.3942 141.151,82.4237 141.092,82.4533 141.033,82.4829 140.944,82.5125 140.914,82.5421 140.825,82.5717 140.796,82.6012 140.707,82.6308 140.648,82.6604 140.559,82.69 140.53,82.7196 140.441,82.7492 140.411,82.7787 140.322,82.8083 140.293,82.8379 140.204,82.8675 140.174,82.8971 140.115,82.9266 140.027,82.9562 139.938,82.9858 139.908,83.0154 139.82,83.045 139.79,83.0746 139.731,83.1041 139.642,83.1337 139.583,83.1633 139.524,83.1929 139.494,83.2225 139.435,83.2521 139.316,83.2816 139.287,83.3112 139.198,83.3408 139.168,83.3704 139.08,83.4 139.05,83.4295 138.961,83.4591 138.932,83.4887 138.843,83.5183 138.814,83.5479 138.754,83.5774 138.666,83.607 138.577,83.6366 138.518,83.6662 138.458,83.6958 138.429,83.7253 138.34,83.7549 138.281,83.7845 138.222,83.8141 138.163,83.8437 138.133,83.8732 138.074,83.9028 137.955,83.9324 137.926,83.962 137.837,83.9916 137.808,84.0212 137.719,84.0507 137.689,84.0803 137.6,84.1099 137.541,84.1395 137.512,84.1691 137.452,84.1987 137.393,84.2282 137.304,84.2578 137.216,84.2874 137.157,84.317 137.097,84.3466 137.038,84.3761 136.979,84.4057 136.92,84.4353 136.861,84.4649 136.831,84.4945 136.772,84.5241 136.683,84.5536 136.624,84.5832 136.535,84.6128 136.476,84.6424 136.446,84.672 136.358,84.7016 136.298,84.7311 136.239,84.7607 136.18,84.7903 136.151,84.8199 136.062,84.8495 136.032,84.8791 135.944,84.9086 135.855,84.9382 135.796,84.9678 135.736,84.9974 135.677,85.027 135.618,85.0565 135.559,85.0861 135.529,85.1157 135.44,85.1453 135.411,85.1749 135.322,85.2044 135.263,85.234 135.204,85.2636 135.115,85.2932 135.056,85.3228 134.997,85.3523 134.938,85.3819 134.878,85.4115 134.819,85.4411 134.79,85.4707 134.701,85.5002 134.671,85.5298 134.582,85.5594 134.494,85.589 134.435,85.6186 134.375,85.6481 134.316,85.6777 134.287,85.7073 134.198,85.7369 134.168,85.7665 134.08,85.7961 134.05,85.8256 133.961,85.8552 133.932,85.8848 133.813,85.9144 133.754,85.944 133.695,85.9736 133.636,86.0031 133.577,86.0327 133.547,86.0623 133.458,86.0919 133.399,86.1215 133.34,86.1511 133.281,86.1806 133.221,86.2102 133.162,86.2398 133.074,86.2694 133.044,86.299 132.955,86.3286 132.896,86.3581 132.837,86.3877 132.807,86.4173 132.718,86.4469 132.659,86.4765 132.6,86.506 132.541,86.5356 132.452,86.5652 132.393,86.5948 132.334,86.6244 132.275,86.654 132.215,86.6835 132.186,86.7131 132.097,86.7427 132.038,86.7723 131.979,86.8019 131.92,86.8314 131.86,86.861 131.801,86.8906 131.712,86.9202 131.653,86.9498 131.594,86.9793 131.565,87.0089 131.476,87.0385 131.417,87.0681 131.357,87.0977 131.298,87.1272 131.239,87.1568 131.18,87.1864 131.091,87.216 131.032,87.2456 130.973,87.2751 130.914,87.3047 130.854,87.3343 130.795,87.3639 130.736,87.3935 130.677,87.4231 130.618,87.4526 130.559,87.4822 130.529,87.5118 130.44,87.5414 130.351,87.571 130.292,87.6006 130.233,87.6301 130.174,87.6597 130.115,87.6893 130.055,87.7189 129.996,87.7485 129.937,87.778 129.908,87.8076 129.819,87.8372 129.76,87.8668 129.671,87.8964 129.612,87.926 129.553,87.9555 129.493,87.9851 129.434,88.0147 129.375,88.0443 129.316,88.0739 129.257,88.1035 129.197,88.133 129.168,88.1626 129.079,88.1922 128.99,88.2218 128.931,88.2514 128.872,88.281 128.813,88.3105 128.754,88.3401 128.695,88.3697 128.635,88.3993 128.576,88.4289 128.547,88.4584 128.458,88.488 128.428,88.5176 128.31,88.5472 128.251,88.5768 128.191,88.6063 128.132,88.6359 128.073,88.6655 128.014,88.6951 127.955,88.7247 127.925,88.7543 127.836,88.7838 127.777,88.8134 127.718,88.843 127.629,88.8726 127.57,88.9022 127.511,88.9317 127.452,88.9613 127.393,88.9909 127.334,89.0205 127.274,89.0501 127.215,89.0796 127.156,89.1092 127.097,89.1388 127.038,89.1684 126.949,89.198 126.89,89.2275 126.831,89.2571 126.771,89.2867 126.712,89.3163 126.653,89.3459 126.594,89.3755 126.535,89.405 126.475,89.4346 126.416,89.4642 126.357,89.4938 126.298,89.5234 126.209,89.553 126.15,89.5825 126.061,89.6121 126.032,89.6417 125.972,89.6713 125.913,89.7009 125.825,89.7305 125.795,89.76 125.706,89.7896 125.677,89.8192 125.588,89.8488 125.529,89.8784 125.469,89.9079 125.41,89.9375 125.351,89.9671 125.292,89.9967 125.233,90.0263 125.174,90.0559 125.114,90.0854 125.055,90.115 124.996,90.1446 124.937,90.1742 124.848,90.2038 124.789,90.2334 124.7,90.2629 124.671,90.2925 124.611,90.3221 124.552,90.3517 124.464,90.3813 124.434,90.4108 124.375,90.4404 124.316,90.47 124.256,90.4996 124.168,90.5292 124.079,90.5587 124.049,90.5883 123.99,90.6179 123.931,90.6475 123.842,90.6771 123.813,90.7066 123.724,90.7362 123.694,90.7658 123.635,90.7954 123.576,90.825 123.487,90.8545 123.428,90.8841 123.369,90.9137 123.31,90.9433 123.25,90.9729 123.191,91.0025 123.102,91.032 123.073,91.0616 123.014,91.0912 122.955,91.1208 122.895,91.1504 122.807,91.18 122.718,91.2095 122.688,91.2391 122.599,91.2687 122.57,91.2983 122.511,91.3279 122.422,91.3574 122.392,91.387 122.333,91.4166 122.304,91.4462 122.215,91.4758 122.126,91.5054 122.067,91.5349 122.008,91.5645 121.949,91.5941 121.86,91.6237 121.83,91.6533 121.771,91.6829 121.712,91.7124 121.653,91.742 121.594,91.7716 121.534,91.8012 121.446,91.8308 121.386,91.8604 121.327,91.8899 121.268,91.9195 121.209,91.9491 121.15,91.9787 121.09,92.0083 121.061,92.0378 121.031,92.0674 121.002,92.097 120.913,92.1266 120.883,92.1562 120.824,92.1857 120.765,92.2153 120.735,92.2449 120.706,92.2745 120.676,92.3041 120.617,92.3336 120.588,92.3632 120.558,92.3928 120.499,92.4224 120.499,92.4815 120.44,92.4815 120.41,92.5111 120.38,92.5407 120.351,92.5703 120.321,92.5999 120.292,92.6295 120.232,92.659 120.203,92.6886 120.173,92.7182 120.144,92.7478 120.114,92.7774 120.084,92.8069 120.055,92.8661 120.025,92.8957 119.996,92.9253 119.966,92.9549 119.937,92.9844 119.907,93.014 119.877,93.0732 119.848,93.1028 119.818,93.1324 119.789,93.1619 119.759,93.1915 119.729,93.2211 119.7,93.2803 119.67,93.3394 119.641,93.369 119.611,93.4282 119.582,93.4873 119.552,93.5169 119.522,93.5465 119.493,93.6057 119.463,93.6648 119.434,93.6944 119.404,93.7536 119.374,93.8127 119.345,93.9015 119.315,93.9311 119.286,94.0198 119.256,94.0494 119.226,94.1381 119.197,94.1973 119.167,94.286 119.138,94.3156 119.108,94.4044 119.078,94.4931 119.049,94.6114 119.019,94.7594 118.99,94.8777 118.96,94.9664 118.93,95.1439 118.901,95.2031 118.871,95.3806 118.842,95.4693 118.812,95.5876 118.783,95.706 118.753,95.8243 118.723,95.9426 118.694,96.1793 118.664,96.268 118.635,96.4159 118.605,96.5047 118.576,96.6526 118.546,96.7709 118.516,96.8893 118.487,97.0076 118.457,97.0963 118.428,97.2442 118.398,97.333 118.368,97.5696 118.339,97.7175 118.309,97.8063 118.28,97.9542 118.25,98.0429 118.22,98.1613 118.191,98.2796 118.161,98.3979 118.132,98.5458 118.102,98.6346 118.072,98.8121 118.043,98.96 118.013,99.1079 117.984,99.2558 117.954,99.3445 117.925,99.4628 117.895,99.5812 117.865,99.6995 117.836,99.8178 117.806,99.9066 117.777,100.084 117.747,100.173 117.718,100.35 117.688,100.557 117.658,100.646 117.629,100.765 117.599,100.883 117.57,100.972 117.54,101.119 117.51,101.238 117.481,101.386 117.451,101.474 117.422,101.622 117.392,101.741 117.362,101.948 117.333,102.096 117.303,102.184 117.274,102.273 117.244,102.421 117.215,102.51 117.185,102.687 117.155,102.776 117.126,102.924 117.096,103.013 117.066,103.19 117.037,103.397 117.007,103.486 116.978,103.575 116.948,103.723 116.919,103.811 116.889,103.989 116.859,104.048 116.83,104.226 116.8,104.314 116.771,104.462 116.741,104.551 116.712,104.758 116.682,104.876 116.652,105.024 116.623,105.113 116.593,105.261 116.564,105.35 116.534,105.498 116.504,105.616 116.475,105.764 116.445,105.853 116.416,106.03 116.386,106.148 116.356,106.326 116.327,106.415 116.297,106.563 116.268,106.651 116.238,106.799 116.209,106.888 116.179,107.036 116.149,107.154 116.12,107.302 116.09,107.391 116.06,107.627 116.031,107.716 116.001,107.864 115.972,107.953 115.942,108.101 115.913,108.19 115.883,108.337 115.853,108.426 115.824,108.604 115.794,108.692 115.765,108.811 115.735,109.018 115.706,109.166 115.676,109.254 115.646,109.402 115.617,109.491 115.587,109.639 115.558,109.728 115.528,109.905 115.498,109.994 115.469,110.112 115.439,110.231 115.41,110.438 115.38,110.556 115.35,110.674 115.321,110.793 115.291,110.941 115.262,111.029 115.232,111.177 115.203,111.266 115.173,111.384 115.143,111.532 115.114,111.621 115.084,111.769 115.054,111.976 115.025,112.094 114.995,112.242 114.966,112.331 114.936,112.479 114.907,112.568 114.877,112.686 114.848,112.804 114.818,112.923 114.788,113.071 114.759,113.189 114.729,113.366 114.7,113.544 114.67,113.632 114.64,113.78 114.611,113.869 114.581,113.988 114.552,114.106 114.522,114.224 114.492,114.372 114.463,114.461 114.433,114.638 114.404,114.845 114.374,114.905 114.344,115.082 114.315,115.171 114.285,115.26 114.256,115.407 114.226,115.496 114.197,115.644 114.167,115.733 114.137,115.91 114.108,116.029 114.078,116.206 114.049,116.384 114.019,116.472 113.989,116.591 113.96,116.709 113.93,116.798 113.901,116.946 113.871,117.034 113.842,117.212 113.812,117.301 113.782,117.449 113.753,117.656 113.723,117.774 113.694,117.892 113.664,118.011 113.634,118.099 113.605,118.247 113.575,118.336 113.546,118.513 113.516,118.573 113.486,118.75 113.457,118.839 113.427,119.046 113.398,119.194 113.368,119.283 113.339,119.401 113.309,119.549 113.279,119.638 113.25,119.786 113.22,119.874 113.191,120.052 113.161,120.17 113.131,120.377 113.131,121.56 113.161,121.768 113.191,121.886 113.22,122.063 113.25,122.123 113.279,122.27 113.309,122.33 113.339,122.418 113.368,122.477 113.398,122.566 113.427,122.655 113.457,122.744 113.486,122.803 113.516,122.892 113.546,122.951 113.575,123.01 113.605,123.069 113.634,123.099 113.664,123.158 113.694,123.187 113.723,123.247 113.753,123.276 113.782,123.365 113.812,123.424 113.842,123.454 113.871,123.513 113.901,123.542 113.93,123.602 113.96,123.631 113.989,123.661 114.019,123.69 114.049,123.72 114.078,123.779 114.108,123.809 114.137,123.838 114.167,123.897 114.197,123.927 114.226,123.957 114.256,124.016 114.285,124.045 114.315,124.075 114.344,124.105 114.374,124.134 114.404,124.164 114.433,124.223 114.463,124.252 114.492,124.312 114.522,124.341 114.552,124.371 114.581,124.4 114.611,124.43 114.64,124.46 114.67,124.489 114.7,124.548 114.729,124.578 114.759,124.607 114.788,124.667 114.818,124.696 114.848,124.755 114.907,124.785 114.936,124.844 114.966,124.874 114.995,124.903 115.025,124.962 115.054,124.992 115.084,125.022 115.114,125.051 115.143,125.11 115.173,125.14 115.203,125.169 115.232,125.199 115.262,125.258 115.291,125.288 115.321,125.317 115.35,125.347 115.38,125.406 115.439,125.406 115.439,125.465 115.469,125.524 115.498,125.554 115.528,125.584 115.558,125.643 115.617,125.643 115.617,125.702 115.646,125.732 115.676,125.761 115.706,125.791 115.735,125.82 115.765,125.879 115.794,125.909 115.824,125.939 115.853,125.998 115.883,126.027 115.913,126.057 115.942,126.087 115.972,126.116 116.001,126.175 116.031,126.205 116.06,126.234 116.09,126.293 116.12,126.323 116.149,126.353 116.179,126.382 116.209,126.412 116.238,126.471 116.268,126.501 116.297,126.53 116.327,126.56 116.356,126.589 116.386,126.649 116.416,126.678 116.445,126.737 116.475,126.767 116.504,126.796 116.534,126.826 116.564,126.885 116.623,126.885 116.623,126.944 116.652,126.974 116.682,127.004 116.712,127.033 116.741,127.092 116.771,127.122 116.8,127.181 116.83,127.211 116.859,127.24 116.889,127.27 116.919,127.329 116.948,127.358 116.978,127.388 117.007,127.418 117.066,127.418 117.066,127.477 117.096,127.536 117.126,127.566 117.155,127.625 117.185,127.654 117.215,127.684 117.244,127.714 117.274,127.743 117.303,127.773 117.333,127.802 117.362,127.861 117.392,127.891 117.422,127.95 117.451,127.98 117.481,128.009 117.51,128.039 117.54,128.068 117.57,128.128 117.599,128.157 117.629,128.187 117.658,128.216 117.688,128.246 117.718,128.305 117.747,128.335 117.777,128.364 117.806,128.423 117.836,128.453 117.865,128.483 117.895,128.512 117.925,128.542 117.954,128.601 117.984,128.631 118.013,128.66 118.043,128.69 118.072,128.749 118.102,128.778 118.132,128.838 118.161,128.867 118.191,128.897 118.22,128.926 118.25,128.986 118.309,128.986 118.309,129.045 118.368,129.045 118.368,129.104 118.398,129.163 118.428,129.193 118.457,129.222 118.487,129.281 118.546,129.281 118.546,129.34 118.576,129.37 118.605,129.4 118.635,129.429 118.664,129.459 118.694,129.518 118.723,129.548 118.753,129.607 118.783,129.636 118.812,129.666 118.842,129.695 118.871,129.725 118.901,129.784 118.93,129.814 118.96,129.843 118.99,129.873 119.019,129.932 119.049,129.962 119.078,129.991 119.108,130.021 119.138,130.08 119.167,130.11 119.197,130.139 119.226,130.169 119.256,130.228 119.286,130.257 119.315,130.287 119.345,130.317 119.374,130.346 119.404,130.405 119.434,130.435 119.463,130.464 119.493,130.524 119.522,130.553 119.552,130.583 119.582,130.613 119.611,130.672 119.67,130.672 119.67,130.731 119.7,130.76 119.729,130.82 119.759,130.849 119.789,130.879 119.818,130.908 119.848,130.968 119.877,130.997 119.907,131.027 119.937,131.056 119.966,131.086 119.996,131.115 120.025,131.174 120.055,131.204 120.084,131.263 120.114,131.293 120.144,131.322 120.173,131.352 120.203,131.411 120.232,131.441 120.262,131.47 120.292,131.5 120.321,131.53 120.351,131.559 120.38,131.618 120.41,131.648 120.44,131.707 120.499,131.707 120.499,131.766 120.528,131.796 120.558,131.825 120.588,131.855 120.617,131.914 120.647,131.944 120.676,131.973 120.706,132.003 120.735,132.062 120.765,132.092 120.795,132.151 120.854,132.151 120.854,132.21 120.883,132.239 120.913,132.269 120.943,132.299 120.972,132.328 121.002,132.387 121.031,132.447 121.061,132.476 121.09,132.506 121.12,132.535 121.15,132.594 121.179,132.624 121.209,132.654 121.238,132.683 121.298,132.683 121.298,132.742 121.327,132.772 121.357,132.831 121.386,132.861 121.416,132.92 121.446,132.949 121.475,132.979 121.505,133.009 121.534,133.038 121.564,133.068 121.594,133.127 121.623,133.156 121.653,133.186 121.682,133.245 121.712,133.275 121.741,133.304 121.771,133.334 121.801,133.393 121.83,133.423 121.86,133.452 121.889,133.482 121.919,133.512 121.949,133.571 121.978,133.6 122.008,133.63 122.037,133.689 122.067,133.719 122.096,133.748 122.126,133.807 122.185,133.807 122.185,133.866 122.215,133.896 122.244,133.926 122.274,133.955 122.304,133.985 122.333,134.044 122.363,134.103 122.392,134.133 122.422,134.162 122.452,134.192 122.481,134.221 122.511,134.251 122.54,134.31 122.599,134.31 122.599,134.369 122.629,134.399 122.659,134.458 122.688,134.488 122.718,134.547 122.777,134.547 122.777,134.606 122.807,134.636 122.836,134.665 122.866,134.695 122.895,134.754 122.925,134.784 122.955,134.813 122.984,134.843 123.014,134.902 123.043,134.931 123.073,134.961 123.102,134.991 123.132,135.05 123.162,135.079 123.191,135.109 123.221,135.138 123.25,135.198 123.31,135.198 123.31,135.257 123.339,135.286 123.369,135.346 123.398,135.375 123.428,135.405 123.458,135.434 123.487,135.493 123.517,135.523 123.546,135.553 123.576,135.582 123.605,135.612 123.635,135.641 123.665,135.701 123.694,135.73 123.724,135.789 123.753,135.819 123.783,135.848 123.813,135.878 123.842,135.908 123.872,135.937 123.901,135.996 123.931,136.026 123.961,136.055 123.99,136.115 124.02,136.144 124.049,136.174 124.079,136.233 124.108,136.263 124.138,136.292 124.168,136.322 124.197,136.351 124.227,136.381 124.256,136.44 124.286,136.47 124.316,136.499 124.345,136.558 124.375,136.588 124.404,136.618 124.434,136.647 124.464,136.677 124.493,136.736 124.523,136.766 124.552,136.795 124.582,136.825 124.611,136.854 124.641,136.913 124.671,136.943 124.7,136.973 124.73,137.032 124.759,137.061 124.789,137.091 124.819,137.15 124.848,137.18 124.878,137.209 124.907,137.239 124.937,137.268 124.966,137.327 124.996,137.357 125.026,137.387 125.055,137.446 125.085,137.475 125.114,137.505 125.144,137.535 125.174,137.564 125.203,137.594 125.233,137.623 125.262,137.653 125.292,137.712 125.322,137.771 125.351,137.801 125.381,137.86 125.41,137.89 125.44,137.919 125.499,137.919 125.499,137.978 125.529,138.008 125.558,138.037 125.588,138.097 125.617,138.126 125.647,138.185 125.677,138.215 125.706,138.245 125.736,138.274 125.765,138.304 125.795,138.333 125.825,138.392 125.854,138.422 125.884,138.452 125.913,138.481 125.943,138.54 125.972,138.57 126.002,138.6 126.032,138.629 126.061,138.688 126.091,138.718 126.12,138.747 126.15,138.777 126.18,138.836 126.209,138.866 126.239,138.895 126.268,138.925 126.298,138.984 126.328,139.014 126.357,139.073 126.416,139.073 126.416,139.132 126.446,139.162 126.475,139.191 126.505,139.221 126.535,139.25 126.564,139.28 126.594,139.339 126.623,139.369 126.653,139.428 126.683,139.457 126.712,139.487 126.742,139.517 126.771,139.576 126.831,139.576 126.831,139.635 126.86,139.665 126.89,139.724 126.949,139.724 126.949,139.783 126.978,139.812 127.008,139.872 127.038,139.901 127.067,139.931 127.097,139.96 127.126,140.019 127.185,140.019 127.185,140.079 127.215,140.108 127.245,140.138 127.274,140.197 127.304,140.226 127.334,140.256 127.363,140.315 127.422,140.315 127.422,140.374 127.452,140.404 127.481,140.434 127.511,140.493 127.541,140.522 127.57,140.552 127.6,140.582 127.629,140.611 127.659,140.67 127.689,140.7 127.718,140.729 127.748,140.789 127.777,140.818 127.807,140.848 127.836,140.877 127.866,140.907 127.896,140.937 127.925,140.996 127.955,141.055 127.984,141.084 128.014,141.114 128.044,141.144 128.073,141.173 128.103,141.203 128.132,141.262 128.191,141.262 128.191,141.321 128.221,141.351 128.251,141.38 128.28,141.439 128.31,141.499 128.339,141.528 128.369,141.558 128.428,141.558 128.428,141.617 128.458,141.647 128.487,141.706 128.517,141.735 128.547,141.765 128.576,141.794 128.606,141.854 128.635,141.883 128.665,141.913 128.695,141.942 128.724,142.001 128.754,142.031 128.783,142.061 128.813,142.09 128.842,142.12 128.872,142.179 128.902,142.209 128.931,142.238 128.961,142.297 128.99,142.327 129.02,142.356 129.05,142.416 129.079,142.445 129.109,142.475 129.138,142.504 129.168,142.534 129.197,142.564 129.227,142.593 129.257,142.652 129.286,142.682 129.316,142.741 129.345,142.771 129.375,142.8 129.405,142.83 129.434,142.859 129.464,142.889 129.493,142.948 129.523,142.978 129.553,143.007 129.582,143.066 129.612,143.096 129.641,143.126 129.671,143.185 129.73,143.185 129.73,143.244 129.76,143.274 129.789,143.303 129.819,143.362 129.878,143.362 129.878,143.421 129.908,143.451 129.937,143.51 129.967,143.54 129.996,143.569 130.026,143.599 130.055,143.658 130.115,143.658 130.115,143.717 130.144,143.747 130.174,143.806 130.203,143.836 130.233,143.865 130.263,143.895 130.292,143.954 130.351,143.954 130.351,144.013 130.381,144.043 130.411,144.072 130.44,144.102 130.47,144.131 130.499,144.161 130.529,144.19 130.559,144.22 130.588,144.25 130.618,144.279 130.647,144.309 130.677,144.338 130.707,144.368 130.736,144.398 130.766,144.427 130.795,144.457 130.825,144.486 130.884,144.516 130.914,144.546 130.943,144.575 130.973,144.605 131.032,144.634 131.062,144.664 131.091,144.693 131.121,144.723 131.18,144.753 131.209,144.782 131.269,144.812 131.298,144.841 131.387,144.871 131.417,144.9 131.476,144.93 131.505,144.96 131.565,144.989 131.594,145.019 131.653,145.048 131.712,145.078 131.772,145.108 131.86,145.137 131.89,145.167 131.979,145.196 132.068,145.226 132.127,145.256 132.186,145.285 132.275,145.315 132.363,145.344 132.452,145.374 132.541,145.403 132.689,145.433 132.778,145.463 132.955,145.492 160.472,145.492 160.649,145.463 160.738,145.433 160.886,145.403 160.945,145.374 161.063,145.344 161.123,145.315 161.211,145.285 161.3,145.256 161.359,145.226 161.418,145.196 161.537,145.167 161.566,145.137 161.655,145.108 161.714,145.078 161.774,145.048 161.833,145.019 161.862,144.989 161.922,144.96 161.951,144.93 162.01,144.9 162.04,144.871 162.129,144.841 162.158,144.812 162.217,144.782 162.247,144.753 162.277,144.723 162.336,144.693 162.365,144.664 162.395,144.634 162.454,144.605 162.484,144.575 162.513,144.546 162.543,144.516 162.602,144.486 162.632,144.457 162.661,144.427 162.691,144.398 162.72,144.368 162.75,144.338 162.78,144.309 162.809,144.279 162.839,144.25 162.868,144.22 162.898,144.19 162.928,144.161 162.957,144.131 162.987,144.102 163.016,144.072 163.046,144.043 163.075,144.013 163.075,143.954 163.135,143.954 163.164,143.895 163.194,143.865 163.223,143.836 163.253,143.806 163.283,143.747 163.312,143.717 163.342,143.688 163.371,143.658 163.401,143.599 163.43,143.569 163.46,143.54 163.49,143.51 163.519,143.451 163.549,143.421 163.549,143.362 163.608,143.362 163.638,143.303 163.667,143.274 163.697,143.244 163.697,143.185 163.756,143.185 163.786,143.126 163.815,143.096 163.845,143.066 163.874,143.007 163.904,142.978 163.934,142.948 163.963,142.889 163.993,142.859 164.022,142.83 164.052,142.8 164.081,142.771 164.111,142.741 164.141,142.682 164.17,142.652 164.2,142.593 164.229,142.564 164.259,142.534 164.289,142.504 164.318,142.475 164.348,142.445 164.377,142.416 164.407,142.356 164.437,142.327 164.466,142.297 164.496,142.238 164.525,142.209 164.555,142.179 164.584,142.12 164.614,142.09 164.644,142.061 164.673,142.031 164.703,142.001 164.732,141.942 164.762,141.913 164.791,141.883 164.821,141.854 164.851,141.794 164.88,141.765 164.91,141.735 164.939,141.706 164.969,141.647 164.999,141.617 164.999,141.558 165.058,141.558 165.087,141.528 165.117,141.499 165.147,141.439 165.176,141.38 165.206,141.351 165.235,141.321 165.235,141.262 165.295,141.262 165.324,141.203 165.354,141.173 165.383,141.144 165.413,141.114 165.442,141.084 165.472,141.055 165.502,140.996 165.531,140.937 165.561,140.907 165.59,140.877 165.62,140.848 165.649,140.818 165.679,140.789 165.709,140.729 165.738,140.7 165.768,140.67 165.798,140.611 165.827,140.582 165.857,140.552 165.886,140.522 165.916,140.493 165.945,140.434 165.975,140.404 166.005,140.374 166.005,140.315 166.064,140.315 166.093,140.256 166.123,140.226 166.153,140.197 166.182,140.138 166.212,140.108 166.241,140.079 166.241,140.019 166.301,140.019 166.33,139.96 166.36,139.931 166.389,139.901 166.419,139.872 166.448,139.812 166.478,139.783 166.508,139.724 166.537,139.694 166.567,139.665 166.596,139.635 166.596,139.576 166.655,139.576 166.685,139.517 166.715,139.487 166.744,139.457 166.774,139.428 166.803,139.369 166.833,139.339 166.863,139.28 166.892,139.25 166.922,139.221 166.951,139.191 166.981,139.162 167.011,139.132 167.04,139.073 167.07,139.043 167.099,139.014 167.129,138.984 167.159,138.925 167.188,138.895 167.218,138.866 167.247,138.836 167.277,138.777 167.307,138.747 167.336,138.718 167.366,138.688 167.395,138.629 167.425,138.6 167.454,138.57 167.484,138.54 167.514,138.481 167.543,138.452 167.573,138.422 167.602,138.392 167.632,138.333 167.661,138.304 167.691,138.274 167.721,138.245 167.75,138.215 167.78,138.185 167.809,138.126 167.839,138.097 167.869,138.037 167.898,138.008 167.928,137.949 167.987,137.919 168.017,137.89 168.046,137.83 168.076,137.801 168.105,137.771 168.135,137.712 168.165,137.653 168.194,137.623 168.224,137.594 168.253,137.564 168.283,137.535 168.312,137.505 168.342,137.475 168.372,137.416 168.401,137.387 168.431,137.357 168.46,137.327 168.49,137.268 168.52,137.239 168.549,137.209 168.579,137.18 168.608,137.12 168.638,137.091 168.667,137.061 168.697,137.032 168.727,136.973 168.756,136.943 168.786,136.913 168.815,136.854 168.845,136.825 168.875,136.795 168.904,136.766 168.934,136.736 168.963,136.677 168.993,136.647 169.023,136.618 169.052,136.588 169.082,136.558 169.111,136.499 169.111,136.44 169.171,136.44 169.2,136.381 169.23,136.351 169.259,136.322 169.289,136.292 169.318,136.263 169.348,136.233 169.378,136.174 169.407,136.144 169.437,136.115 169.466,136.055 169.496,136.026 169.525,135.967 169.555,135.937 169.585,135.908 169.614,135.878 169.644,135.848 169.673,135.819 169.703,135.789 169.733,135.73 169.762,135.701 169.792,135.641 169.821,135.612 169.851,135.582 169.881,135.553 169.881,135.493 169.94,135.493 169.969,135.434 169.999,135.405 170.029,135.375 170.058,135.346 170.088,135.286 170.117,135.257 170.117,135.198 170.177,135.198 170.206,135.138 170.236,135.109 170.265,135.079 170.295,135.05 170.324,134.991 170.354,134.961 170.384,134.931 170.413,134.902 170.443,134.843 170.472,134.813 170.502,134.784 170.531,134.724 170.561,134.695 170.591,134.665 170.62,134.636 170.65,134.606 170.679,134.547 170.709,134.517 170.739,134.488 170.768,134.458 170.798,134.399 170.827,134.369 170.827,134.31 170.887,134.31 170.916,134.251 170.946,134.221 170.975,134.192 171.005,134.162 171.035,134.133 171.064,134.074 171.094,134.044 171.123,133.985 171.153,133.955 171.182,133.926 171.212,133.896 171.242,133.866 171.271,133.807 171.301,133.778 171.33,133.748 171.36,133.719 171.39,133.689 171.419,133.63 171.449,133.6 171.478,133.571 171.508,133.512 171.537,133.482 171.567,133.452 171.597,133.423 171.626,133.393 171.656,133.334 171.685,133.304 171.715,133.275 171.745,133.245 171.774,133.186 171.804,133.156 171.833,133.127 171.863,133.068 171.893,133.038 171.922,133.009 171.952,132.979 171.981,132.949 172.011,132.92 172.041,132.861 172.07,132.831 172.1,132.772 172.129,132.742 172.129,132.683 172.188,132.683 172.188,132.624 172.248,132.624 172.277,132.565 172.307,132.535 172.336,132.506 172.366,132.447 172.396,132.417 172.425,132.358 172.455,132.328 172.484,132.299 172.514,132.269 172.543,132.239 172.573,132.21 172.573,132.151 172.632,132.151 172.662,132.092 172.691,132.062 172.721,132.003 172.751,131.973 172.78,131.944 172.81,131.914 172.839,131.855 172.869,131.825 172.899,131.796 172.928,131.766 172.958,131.707 172.987,131.677 173.017,131.648 173.047,131.618 173.076,131.559 173.106,131.53 173.135,131.5 173.165,131.47 173.194,131.411 173.224,131.382 173.254,131.352 173.283,131.322 173.313,131.293 173.342,131.263 173.372,131.204 173.402,131.174 173.431,131.115 173.461,131.086 173.49,131.056 173.52,131.027 173.549,130.997 173.579,130.968 173.609,130.908 173.638,130.879 173.668,130.849 173.697,130.82 173.727,130.76 173.757,130.701 173.786,130.672 173.816,130.642 173.845,130.613 173.875,130.583 173.875,130.524 173.934,130.524 173.964,130.464 173.993,130.435 174.023,130.405 174.052,130.346 174.082,130.317 174.112,130.287 174.112,130.228 174.171,130.228 174.2,130.169 174.23,130.139 174.26,130.11 174.289,130.05 174.319,130.021 174.348,129.991 174.378,129.962 174.408,129.903 174.437,129.873 174.467,129.843 174.496,129.814 174.526,129.755 174.555,129.725 174.585,129.695 174.615,129.666 174.644,129.636 174.674,129.607 174.703,129.548 174.733,129.488 174.762,129.459 174.792,129.429 174.822,129.4 174.851,129.37 174.881,129.34 174.881,129.281 174.94,129.281 174.97,129.222 174.999,129.193 175.029,129.163 175.058,129.104 175.058,129.045 175.118,129.045 175.147,128.986 175.177,128.956 175.206,128.926 175.236,128.897 175.266,128.867 175.295,128.808 175.325,128.778 175.354,128.749 175.384,128.69 175.414,128.66 175.443,128.631 175.473,128.601 175.502,128.542 175.532,128.512 175.561,128.483 175.591,128.453 175.621,128.423 175.65,128.364 175.68,128.335 175.709,128.305 175.739,128.246 175.769,128.216 175.798,128.187 175.828,128.157 175.857,128.128 175.887,128.068 175.917,128.039 175.946,128.009 175.976,127.98 176.005,127.95 176.035,127.891 176.064,127.861 176.094,127.802 176.124,127.773 176.153,127.743 176.183,127.714 176.212,127.684 176.242,127.654 176.272,127.595 176.301,127.566 176.331,127.536 176.36,127.477 176.39,127.418 176.449,127.388 176.479,127.358 176.508,127.299 176.538,127.27 176.567,127.24 176.567,127.181 176.627,127.181 176.656,127.122 176.686,127.092 176.715,127.033 176.745,127.004 176.774,126.974 176.804,126.944 176.804,126.885 176.863,126.885 176.893,126.826 176.922,126.796 176.952,126.737 176.982,126.708 177.011,126.678 177.041,126.649 177.07,126.589 177.1,126.56 177.13,126.53 177.159,126.501 177.189,126.441 177.218,126.412 177.248,126.382 177.278,126.353 177.307,126.323 177.337,126.293 177.366,126.234 177.396,126.205 177.426,126.146 177.455,126.116 177.485,126.087 177.514,126.057 177.544,126.027 177.573,125.998 177.603,125.939 177.633,125.909 177.662,125.879 177.692,125.82 177.692,125.761 177.751,125.761 177.751,125.702 177.81,125.702 177.84,125.643 177.869,125.613 177.899,125.584 177.928,125.554 177.958,125.495 177.988,125.465 178.017,125.406 178.047,125.376 178.076,125.347 178.106,125.317 178.136,125.288 178.165,125.258 178.195,125.199 178.224,125.169 178.254,125.14 178.284,125.081 178.313,125.051 178.343,125.022 178.372,124.992 178.402,124.933 178.431,124.903 178.461,124.874 178.491,124.814 178.52,124.785 178.55,124.755 178.579,124.726 178.609,124.696 178.638,124.667 178.668,124.607 178.698,124.578 178.727,124.519 178.757,124.489 178.786,124.46 178.816,124.43 178.846,124.4 178.875,124.371 178.905,124.341 178.934,124.282 178.964,124.252 178.994,124.223 178.994,124.134 179.053,124.134 179.082,124.105 179.112,124.075 179.142,124.016 179.171,123.986 179.201,123.957 179.23,123.927 179.26,123.897 179.29,123.838 179.319,123.809 179.349,123.75 179.378,123.72 179.408,123.69 179.437,123.631 179.467,123.602 179.497,123.572 179.526,123.542 179.556,123.483 179.585,123.454 179.615,123.394 179.644,123.365 179.674,123.276 179.704,123.247 179.733,123.187 179.763,123.128 179.792,123.099 179.822,123.04 179.852,123.01 179.881,122.921 179.911,122.892 179.94,122.803 179.97,122.744 180,122.625 180.029,122.566 180.059,122.477 180.088,122.418 180.118,122.33 180.148,122.241 180.177,122.123 180.207,122.034 180.236,121.886 180.266,121.768 180.296,121.531 180.296,120.407 180.266,120.17 180.236,120.052 180.207,119.874 180.177,119.786 180.148,119.638 180.118,119.549 180.088,119.401 180.059,119.312 180.029,119.194 180,119.046 179.97,118.839 179.94,118.75 179.911,118.573 179.881,118.513 179.852,118.336 179.822,118.247 179.792,118.099 179.763,118.011 179.733,117.892 179.704,117.774 179.674,117.685 179.644,117.449 179.615,117.301 179.585,117.212 179.556,117.034 179.526,116.946 179.497,116.798 179.467,116.709 179.437,116.591 179.408,116.472 179.378,116.384 179.349,116.236 179.319,116.029 179.29,115.91 179.26,115.762 179.23,115.644 179.201,115.526 179.171,115.407 179.142,115.289 179.112,115.171 179.082,115.082 179.053,114.934 179.023,114.845 178.994,114.638 178.964,114.461 178.934,114.372 178.905,114.224 178.875,114.106 178.846,114.017 178.816,113.869 178.786,113.78 178.757,113.632 178.727,113.544 178.698,113.396 178.668,113.189 178.638,113.071 178.609,112.923 178.579,112.834 178.55,112.716 178.52,112.597 178.491,112.479 178.461,112.331 178.431,112.242 178.402,112.094 178.372,112.006 178.343,111.799 178.313,111.65 178.284,111.532 178.254,111.414 178.224,111.296 178.195,111.207 178.165,111.029 178.136,110.941 178.106,110.793 178.076,110.704 178.047,110.556 178.017,110.438 177.988,110.231 177.958,110.112 177.928,109.994 177.899,109.905 177.869,109.728 177.84,109.669 177.81,109.491 177.78,109.402 177.751,109.254 177.721,109.166 177.692,109.018 177.662,108.84 177.633,108.692 177.603,108.604 177.573,108.456 177.544,108.367 177.514,108.219 177.485,108.13 177.455,107.953 177.426,107.864 177.396,107.716 177.366,107.627 177.337,107.42 177.307,107.332 177.278,107.154 177.248,107.065 177.218,106.918 177.189,106.829 177.159,106.681 177.13,106.563 177.1,106.415 177.07,106.326 177.041,106.178 177.011,106.03 176.982,105.853 176.952,105.764 176.922,105.616 176.893,105.527 176.863,105.379 176.834,105.29 176.804,105.143 176.774,105.024 176.745,104.876 176.715,104.788 176.686,104.581 176.656,104.492 176.627,104.314 176.597,104.226 176.567,104.078 176.538,103.989 176.508,103.841 176.479,103.752 176.449,103.604 176.42,103.486 176.39,103.397 176.36,103.19 176.331,103.042 176.301,102.924 176.272,102.776 176.242,102.687 176.212,102.539 176.183,102.451 176.153,102.303 176.124,102.214 176.094,102.125 176.064,101.977 176.035,101.77 176.005,101.652 175.976,101.474 175.946,101.415 175.917,101.238 175.887,101.149 175.857,101.001 175.828,100.912 175.798,100.794 175.769,100.676 175.739,100.587 175.709,100.38 175.68,100.202 175.65,100.114 175.621,99.9362 175.591,99.8474 175.561,99.7291 175.532,99.6108 175.502,99.4924 175.473,99.3741 175.443,99.2854 175.414,99.1375 175.384,98.9895 175.354,98.8121 175.325,98.6642 175.295,98.5754 175.266,98.4275 175.236,98.3092 175.206,98.1908 175.177,98.0725 175.147,97.9838 175.118,97.8358 175.088,97.7471 175.058,97.5992 175.029,97.3625 174.999,97.2738 174.97,97.1259 174.94,97.0372 174.911,96.9188 174.881,96.7709 174.851,96.6822 174.822,96.5343 174.792,96.4455 174.762,96.2976 174.733,96.2089 174.703,95.9722 174.674,95.8539 174.644,95.7355 174.615,95.6172 174.585,95.4989 174.555,95.4102 174.526,95.2327 174.496,95.1439 174.467,94.996 174.437,94.9073 174.408,94.7594 174.378,94.6114 174.348,94.5227 174.319,94.4339 174.289,94.3452 174.26,94.286 174.23,94.1973 174.2,94.1381 174.171,94.079 174.141,94.0198 174.112,93.9606 174.082,93.9015 174.052,93.8127 174.023,93.7536 173.993,93.6944 173.964,93.6648 173.934,93.6057 173.905,93.5465 173.875,93.5169 173.845,93.4873 173.816,93.4282 173.786,93.3986 173.757,93.3394 173.727,93.3099 173.697,93.2507 173.668,93.1915 173.638,93.1619 173.609,93.1324 173.579,93.1028 173.549,93.0732 173.52,93.014 173.49,92.9844 173.461,92.9549 173.431,92.9253 173.402,92.8957 173.372,92.8661 173.342,92.8365 173.313,92.8069 173.283,92.7478 173.224,92.7478 173.224,92.6886 173.194,92.659 173.135,92.6295 173.106,92.5999 173.076,92.5703 173.047,92.5407 173.017,92.5111 172.987,92.4815 172.928,92.4815 172.928,92.4224 172.869,92.3928 172.839,92.3632 172.81,92.3336 172.751,92.3041 172.721,92.2745 172.691,92.2449 172.662,92.2153 172.603,92.1857 172.543,92.1562 172.514,92.1266 172.425,92.097 172.396,92.0674 172.366,92.0378 172.336,92.0083 172.277,91.9787 172.218,91.9491 172.159,91.9195 172.1,91.8899 172.041,91.8604 171.981,91.8308 171.893,91.8012 171.833,91.7716 171.774,91.742 171.745,91.7124 171.656,91.6829 171.597,91.6533 171.567,91.6237 171.478,91.5941 171.449,91.5645 171.36,91.5349 171.301,91.5054 171.212,91.4758 171.123,91.4462 171.094,91.4166 171.035,91.387 171.005,91.3574 170.946,91.3279 170.857,91.2983 170.827,91.2687 170.739,91.2391 170.709,91.2095 170.62,91.18 170.531,91.1504 170.472,91.1208 170.413,91.0912 170.354,91.0616 170.324,91.032 170.236,91.0025 170.206,90.9729 170.117,90.9433 170.088,90.9137 169.999,90.8841 169.94,90.8545 169.851,90.825 169.792,90.7954 169.733,90.7658 169.703,90.7362 169.614,90.7066 169.585,90.6771 169.496,90.6475 169.437,90.6179 169.378,90.5883 169.348,90.5587 169.259,90.5292 169.171,90.4996 169.111,90.47 169.052,90.4404 168.993,90.4108 168.963,90.3813 168.875,90.3517 168.815,90.3221 168.756,90.2925 168.727,90.2629 168.638,90.2334 168.579,90.2038 168.49,90.1742 168.431,90.1446 168.372,90.115 168.342,90.0854 168.253,90.0559 168.194,90.0263 168.135,89.9967 168.076,89.9671 168.017,89.9375 167.957,89.9079 167.898,89.8784 167.839,89.8488 167.75,89.8192 167.721,89.7896 167.632,89.76 167.602,89.7305 167.514,89.7009 167.454,89.6713 167.395,89.6417 167.366,89.6121 167.277,89.5825 167.218,89.553 167.159,89.5234 167.07,89.4938 167.011,89.4642 166.951,89.4346 166.892,89.405 166.833,89.3755 166.774,89.3459 166.715,89.3163 166.655,89.2867 166.596,89.2571 166.537,89.2275 166.478,89.198 166.389,89.1684 166.33,89.1388 166.271,89.1092 166.212,89.0796 166.153,89.0501 166.093,89.0205 166.034,88.9909 165.975,88.9613 165.916,88.9317 165.857,88.9022 165.798,88.8726 165.709,88.843 165.649,88.8134 165.59,88.7838 165.502,88.7543 165.472,88.7247 165.413,88.6951 165.354,88.6655 165.295,88.6359 165.235,88.6063 165.176,88.5768 165.117,88.5472 164.999,88.5176 164.969,88.488 164.88,88.4584 164.851,88.4289 164.791,88.3993 164.732,88.3697 164.673,88.3401 164.614,88.3105 164.555,88.281 164.496,88.2514 164.437,88.2218 164.348,88.1922 164.259,88.1626 164.229,88.133 164.17,88.1035 164.111,88.0739 164.052,88.0443 163.993,88.0147 163.934,87.9851 163.874,87.9555 163.815,87.926 163.756,87.8964 163.667,87.8668 163.608,87.8372 163.519,87.8076 163.49,87.778 163.43,87.7485 163.371,87.7189 163.312,87.6893 163.253,87.6597 163.194,87.6301 163.135,87.6006 163.075,87.571 162.987,87.5414 162.898,87.5118 162.839,87.4822 162.809,87.4526 162.75,87.4231 162.691,87.3935 162.632,87.3639 162.572,87.3343 162.513,87.3047 162.454,87.2751 162.395,87.2456 162.336,87.216 162.217,87.1864 162.188,87.1568 162.129,87.1272 162.069,87.0977 162.01,87.0681 161.951,87.0385 161.862,87.0089 161.833,86.9793 161.774,86.9498 161.714,86.9202 161.626,86.8906 161.566,86.861 161.507,86.8314 161.448,86.8019 161.389,86.7723 161.33,86.7427 161.241,86.7131 161.211,86.6835 161.152,86.654 161.093,86.6244 161.004,86.5948 160.975,86.5652 160.856,86.5356 160.827,86.506 160.768,86.4765 160.708,86.4469 160.62,86.4173 160.59,86.3877 160.531,86.3581 160.472,86.3286 160.383,86.299 160.353,86.2694 160.265,86.2398 160.205,86.2102 160.146,86.1806 160.087,86.1511 159.998,86.1215 159.969,86.0919 159.88,86.0623 159.85,86.0327 159.791,86.0031 159.732,85.9736 159.673,85.944 159.584,85.9144 159.495,85.8848 159.466,85.8552 159.377,85.8256 159.347,85.7961 159.259,85.7665 159.229,85.7369 159.14,85.7073 159.111,85.6777 159.022,85.6481 158.992,85.6186 158.904,85.589 158.844,85.5594 158.756,85.5298 158.726,85.5002 158.637,85.4707 158.608,85.4411 158.548,85.4115 158.489,85.3819 158.43,85.3523 158.371,85.3228 158.312,85.2932 158.223,85.2636 158.134,85.234 158.105,85.2044 158.016,85.1749 157.986,85.1453 157.898,85.1157 157.868,85.0861 157.779,85.0565 157.75,85.027 157.69,84.9974 157.602,84.9678 157.572,84.9382 157.483,84.9086 157.395,84.8791 157.335,84.8495 157.276,84.8199 157.247,84.7903 157.188,84.7607 157.128,84.7311 157.069,84.7016 156.98,84.672 156.951,84.6424 156.862,84.6128 156.803,84.5832 156.714,84.5536 156.625,84.5241 156.596,84.4945 156.536,84.4649 156.507,84.4353 156.448,84.4057 156.359,84.3761 156.329,84.3466 156.241,84.317 156.211,84.2874 156.122,84.2578 156.034,84.2282 155.974,84.1987 155.915,84.1691 155.856,84.1395 155.826,84.1099 155.738,84.0803 155.708,84.0507 155.619,84.0212 155.59,83.9916 155.501,83.962 155.442,83.9324 155.353,83.9028 155.294,83.8732 155.235,83.8437 155.205,83.8141 155.116,83.7845 155.087,83.7549 154.998,83.7253 154.939,83.6958 154.88,83.6662 154.85,83.6366 154.761,83.607 154.673,83.5774 154.613,83.5479 154.584,83.5183 154.495,83.4887 154.465,83.4591 154.377,83.4295 154.317,83.4 154.258,83.3704 154.229,83.3408 154.14,83.3112 154.081,83.2816 153.992,83.2521 153.933,83.2225 153.874,83.1929 153.844,83.1633 153.755,83.1337 153.696,83.1041 153.637,83.0746 153.607,83.045 153.519,83.0154 153.459,82.9858 153.4,82.9562 153.312,82.9266 153.252,82.8971 153.223,82.8675 153.134,82.8379 153.104,82.8083 153.016,82.7787 152.956,82.7492 152.897,82.7196 152.868,82.69 152.779,82.6604 152.72,82.6308 152.631,82.6012 152.572,82.5717 152.513,82.5421 152.453,82.5125 152.394,82.4829 152.335,82.4533 152.276,82.4237 152.217,82.3942 152.158,82.3646 152.098,82.335 152.039,82.3054 151.98,82.2758 151.891,82.2462 151.832,82.2167 151.773,82.1871 151.714,82.1575 151.655,82.1279 151.595,82.0983 151.536,82.0688 151.477,82.0392 151.418,82.0096 151.359,81.98 151.299,81.9504 151.211,81.9209 151.152,81.8913 151.092,81.8617 151.033,81.8321 150.974,81.8025 150.915,81.773 150.856,81.7434 150.797,81.7138 150.737,81.6842 150.678,81.6546 150.619,81.6251 150.501,81.5955 150.471,81.5659 150.382,81.5363 150.353,81.5067 150.293,81.4771 150.234,81.4476 150.175,81.418 150.116,81.3884 150.057,81.3588 149.998,81.3292 149.939,81.2997 149.85,81.2701 149.761,81.2405 149.731,81.2109 149.672,81.1813 149.613,81.1517 149.554,81.1222 149.495,81.0926 149.435,81.063 149.376,81.0334 149.317,81.0038 149.258,80.9742 149.14,80.9447 149.11,80.9151 149.021,80.8855 148.992,80.8559 148.933,80.8263 148.873,80.7967 148.814,80.7672 148.755,80.7376 148.696,80.708 148.637,80.6784 148.577,80.6488 148.459,80.6193 148.37,80.5897 148.341,80.5601 148.281,80.5305 148.163,80.5009 148.104,80.4713 147.986,80.4418 147.927,80.4122 147.779,80.3826 147.69,80.353 147.512,80.3234 145.915,80.3234 "/>
   <path id="_236885312" class="fil13" d="M119.907 98.1908l-0.3254 1.6566 -0.0323 0.0062 -1.5596 6.7626 -0.4158 1.9614 -0.0635 0.0852c0,0.3483 -0.2604,1.0935 -0.3233,1.4516 -0.0892,0.5075 -0.2233,0.9521 -0.3402,1.4644 -0.2232,0.9777 -0.4815,1.9846 -0.6703,2.9388 -0.1915,0.9676 -0.5171,1.9736 -0.671,2.9085 -0.1476,0.897 -0.5989,2.0533 -0.5989,3.0102l0 0.0296c0,1.7398 0.8637,2.6982 1.6793,3.6458 0.4073,0.4732 0.7971,0.9853 1.1854,1.4772 0.3987,0.5049 0.8116,0.9752 1.2007,1.4914 0.7593,1.0074 1.6066,1.9725 2.39,2.9648 0.7723,0.9782 1.5754,2.0312 2.3841,2.9707 0.4095,0.4757 0.7953,0.9829 1.1855,1.4772 0.3901,0.4941 0.819,0.974 1.1888,1.4738 0.3644,0.4926 0.8019,0.9826 1.1888,1.4738 0.3598,0.4567 0.8142,1.0828 1.2006,1.4916 0.4079,0.4316 0.7843,1.0153 1.1835,1.4791 0.4203,0.4883 0.7859,0.9968 1.1988,1.4933 0.4988,0.5997 0.7092,0.8426 1.3889,1.2738 0.4807,0.305 1.3188,0.598 2.0943,0.598l24.5603 0.0195 1.0627 -0.1379c0.0759,-0.0508 0.3312,-0.1167 0.455,-0.1663 0.2,-0.08 0.2809,-0.126 0.4527,-0.1981 0.3214,-0.135 0.5359,-0.3109 0.7966,-0.5052 0.3758,-0.2802 0.9406,-0.9917 1.2249,-1.3786 0.7139,-0.9715 1.5952,-1.8995 2.3078,-2.8694 0.7151,-0.9732 1.5972,-1.8997 2.3081,-2.8692 0.7062,-0.9631 1.5508,-1.9231 2.3023,-2.875 1.524,-1.9303 3.0906,-3.8071 4.6157,-5.7388 0.3779,-0.4787 0.7564,-0.9575 1.1515,-1.4224 0.3945,-0.4641 0.7514,-1.0062 1.154,-1.4494 0.362,-0.3984 0.8277,-0.9933 1.1265,-1.4474 0.2618,-0.3978 0.6268,-1.3362 0.6268,-1.9765l0 -0.7099c0,-0.0042 -0.1499,-0.6181 -0.1658,-0.6921 -0.051,-0.2373 -0.1193,-0.508 -0.1538,-0.7041 -0.0591,-0.3361 -0.2283,-1.1271 -0.3314,-1.414 -0.0453,-0.1258 -0.1174,-0.5309 -0.1597,-0.6983 -0.0588,-0.2333 -0.1035,-0.4662 -0.1699,-0.6879 -0.1206,-0.4029 -0.2079,-0.9953 -0.3091,-1.4363 -0.1137,-0.4956 -0.2203,-0.8865 -0.319,-1.3968 -0.051,-0.2632 -0.1223,-0.4003 -0.1664,-0.6915 -0.0245,-0.1612 -0.1084,-0.5408 -0.16,-0.7275 -0.1295,-0.4688 -0.639,-2.4281 -0.6347,-2.8257l-0.042 -0.0903 -0.3723 -1.7142 -0.0397 -0.0907 -0.7339 -3.071c0,-0.3629 -0.2345,-0.8422 -0.266,-1.2723 -0.0055,-0.0759 -0.1206,-0.4942 -0.1461,-0.623 -0.0478,-0.2411 -0.1157,-0.3884 -0.1627,-0.6361 -0.0631,-0.333 -0.18,-0.9878 -0.284,-1.2543 -0.1096,-0.2806 -0.1964,-0.9251 -0.2992,-1.2686 -0.1126,-0.3759 -0.1664,-0.8531 -0.2804,-1.258 -0.1055,-0.3747 -0.2137,-0.8991 -0.2964,-1.2714 -0.2416,-1.0873 -0.4084,-1.4027 -0.9927,-2.1432 -0.4904,-0.6215 -1.0775,-0.9323 -1.8296,-1.2769 -0.1568,-0.0719 -0.3464,-0.176 -0.5196,-0.2496 -0.0912,-0.0387 -0.4535,-0.2045 -0.5219,-0.2473 -0.312,-0.1955 -0.7322,-0.3229 -1.0575,-0.5106 -0.3001,-0.1733 -0.7152,-0.3259 -1.0466,-0.4919 -0.3536,-0.177 -0.7033,-0.3502 -1.0495,-0.5185 -0.7103,-0.3454 -1.4167,-0.6839 -2.1311,-1.005 -0.6781,-0.3046 -1.4156,-0.668 -2.0957,-1.0109 -0.7026,-0.3542 -1.3977,-0.6537 -2.1007,-1.0057 -0.7026,-0.3518 -1.3985,-0.6602 -2.1001,-1.0064 -0.3404,-0.1681 -0.7295,-0.3611 -1.0662,-0.5018 -0.315,-0.1316 -0.7756,-0.4122 -1.0688,-0.4993 -0.1902,-0.0564 -0.799,-0.3857 -1.0421,-0.4964 -0.3353,-0.1526 -0.7314,-0.3346 -1.0648,-0.5033 -0.6964,-0.3524 -1.4118,-0.6605 -2.1201,-1.0159 -0.7032,-0.353 -1.3952,-0.653 -2.1007,-1.0058 -0.718,-0.3591 -1.3669,-0.7 -2.4362,-0.7l-0.0592 0c-0.9586,0 -1.4163,0.3156 -2.0828,0.5799 -0.2514,0.0997 -0.6852,0.2986 -0.8989,0.4325 -0.2268,0.1421 -0.6686,0.2947 -0.9346,0.4263 -1.2044,0.5957 -2.4149,1.1347 -3.6185,1.7365 -2.3982,1.1991 -4.8446,2.2701 -7.2394,3.4707 -1.2082,0.6057 -2.4104,1.1414 -3.6189,1.7361 -0.6061,0.2983 -1.202,0.5717 -1.8108,0.8519 -0.2255,0.1039 -0.6878,0.3689 -0.8976,0.4338 -0.1155,0.0358 -0.8122,0.3685 -0.9234,0.4375 -0.2145,0.1331 -0.6564,0.3176 -0.9011,0.4303 -0.2053,0.0947 -0.7301,0.3836 -0.898,0.4334 -0.5019,0.149 -1.1917,0.8128 -1.5103,1.182 -0.3649,0.423 -0.7428,1.1653 -0.8533,1.8388 -0.0368,0.2247 -0.4715,2.0746 -0.5301,2.1619z"/>
   <path id="_236885240" class="fil12" d="M145.382 91.387l0 0.4734c0,0.5508 0.1325,0.9978 0.2008,1.4557 0.0662,0.4432 0.1246,1.1003 0.1246,1.5616l0 0.6508c0,0.4007 -0.2929,0.5734 -0.4438,0.7987 0,0.5427 0.1239,0.5198 -0.3021,0.5853 -0.2799,0.0431 -0.5289,0.027 -0.8056,0.0821 -0.2573,0.0513 -0.535,0.0687 -0.7625,0.1251 -0.1783,0.0442 -0.5968,0.1541 -0.7667,0.1498l-0.0852 0.0635c-0.4401,0 -2.0818,0.6344 -2.4895,0.7945 -0.7157,0.281 -1.5556,0.7177 -2.1794,1.1046 -0.587,0.3642 -1.4599,0.8974 -1.9363,1.3476 -0.285,0.2694 -0.6023,0.4833 -0.8878,0.769 -0.1604,0.1606 -0.7086,0.7109 -0.8556,0.8129l-0.4688 -0.3351 -0.3548 0.0325 -0.0591 0c-1.033,0 -2.9594,-3.2244 -4.1423,-3.2244l-0.2071 0c-0.2925,0 -0.6088,0.1739 -0.7872,0.3075 -0.1307,0.098 -0.4259,0.5249 -0.4259,0.6982l0 0.4734c0,0.0181 0.1317,0.3823 0.1477,0.4143 0.0715,0.1433 0.1228,0.2144 0.2191,0.3431 0.0918,0.1228 0.4755,0.4156 0.6153,0.5088 0.4357,0.2907 0.9589,0.5666 1.4136,0.835 0.3599,0.2123 1.0393,0.6466 1.3255,0.9229 0.2629,0.2538 0.3424,0.2621 0.4448,0.6795 0.1375,0.5608 0.212,0.3197 0.4497,0.6744 -0.1308,0.2471 -0.3846,0.6542 -0.5504,0.8993 -0.1967,0.2909 -0.3382,0.6636 -0.5143,0.9649 -0.3644,0.6233 -0.5641,1.4036 -0.8786,2.0797 -0.0684,0.1469 -0.3007,0.9588 -0.3279,1.1218 -0.0682,0.4091 -0.2053,0.7593 -0.2766,1.2025 -0.1384,0.8599 -0.2927,1.6431 -0.2927,2.6655l-0.0281 0.8897 0.1761 2.0981c-0.3073,0.0256 -0.5404,0.1685 -0.702,0.3631 -0.2389,0.2875 -0.2472,0.3301 -0.6595,0.4352 -0.5648,0.144 -1.2267,0.2702 -1.8927,0.2966 -0.5257,0.0209 -1.5221,0.0881 -1.933,0.227 -0.2895,0.0978 -0.5021,0.209 -0.6939,0.4007 -0.1096,0.1097 -0.3915,0.5183 -0.3915,0.7031l0 0.4733c0,0.2242 0.3,0.5941 0.4359,0.7179 0.1731,0.1575 0.5152,0.3175 0.8364,0.3175l0.1183 0c0.5392,0 1.8786,-0.4723 2.1895,-0.6804 0.2121,0 0.7536,-0.2675 1.0075,-0.3239 0.298,-0.0662 0.7591,-0.2381 1.0932,-0.2381 0.3346,0 0.6235,0.2662 0.7101,0.2662 0.1967,0 0.3782,-0.0887 0.4143,-0.0887l0.174 0.0005 0.0331 0.2657c0.0574,0.0857 0.2579,0.6059 0.3005,0.7349 0.0899,0.273 0.1973,0.4992 0.3211,0.7439 0.2453,0.4846 0.4174,0.9336 0.6984,1.4021 0.2576,0.4296 0.514,0.91 0.8052,1.2952 0.3052,0.4037 0.605,0.7924 0.9045,1.196 0.5932,0.7992 1.3894,1.4298 2.0813,2.1197 0.2879,0.287 0.8273,0.6754 1.1734,0.9272 0.1207,0.0878 1.2604,0.8259 1.2604,0.8401 0,0.1325 -0.2071,0.4328 -0.2071,0.5325 0,0.1464 0.1184,0.3263 0.1184,0.5028l0 0.2071c0,0.294 -0.9228,1.757 -1.1066,2.0589 -0.1969,0.3236 -0.4349,0.6089 -0.6452,0.9228 -0.0995,0.1485 -0.4969,0.918 -0.4969,1.1006l0 0.2662c0,0.6686 0.5478,1.3016 1.2131,1.3016 1.406,0 1.6304,-1.5912 2.0015,-2.6729 0.1883,-0.5489 0.3881,-1.2195 0.6412,-1.6958 0.1406,-0.2644 0.2632,-0.4936 0.5485,-0.6053 0.2435,-0.0953 0.2376,-0.0067 0.365,-0.2267 0.0825,-0.1425 0.1589,-0.2076 0.2015,-0.3902 0.2515,0.0056 1.0255,0.3294 1.3322,0.4133 0.3706,0.1015 1.0261,0.3062 1.3915,0.3541 0.4813,0.0631 1.0131,0.1527 1.5105,0.2352 0.4145,0.0687 1.2189,0.0919 1.6833,0.0919l0.8876 0c0.9466,0 2.0835,-0.1954 2.897,-0.3576 0.4851,-0.0967 0.8693,-0.2284 1.3068,-0.3205 0.2997,-0.063 1.0337,-0.3816 1.2699,-0.3869 0.0336,0.1441 0.1202,0.243 0.1869,0.3753 0.0952,0.1886 0.1736,0.1211 0.3614,0.2007 0.2752,0.1166 0.4058,0.3568 0.5366,0.6172 0.2614,0.5204 0.4451,1.0488 0.6421,1.6358 0.182,0.5419 0.3413,1.2353 0.5816,1.6964 0.2347,0.4503 0.6306,1.0064 1.3012,1.0064l0.1479 0c0.6533,0 1.1835,-0.6373 1.1835,-1.3015 0,-0.8343 -0.7367,-1.682 -1.0948,-2.2187 -0.2111,-0.3166 -1.1538,-1.8121 -1.1538,-2.189l0 -0.1479c0,-0.1035 0.1479,-0.4114 0.1479,-0.4142 0,-0.0014 -0.1824,-0.4559 -0.2071,-0.562 0.4304,-0.2882 0.8495,-0.552 1.2845,-0.8457 0.4306,-0.2908 0.8028,-0.6378 1.2063,-0.9533 0.7499,-0.5862 1.4765,-1.46 2.1025,-2.1874 0.5435,-0.6315 1.3327,-1.7919 1.7189,-2.5707 0.2486,-0.5013 0.4637,-0.9305 0.705,-1.4547 0.115,-0.25 0.1915,-0.5082 0.311,-0.7539 0.1117,-0.2297 0.1602,-0.6005 0.2766,-0.8243l0.2951 0.0351c0.0534,0.0357 0.052,0.0591 0.1183,0.0591l0.148 0c0.082,0 0.2917,-0.2662 0.6509,-0.2662 0.5106,0 1.6659,0.3983 2.0614,0.5717 0.1541,0.0676 0.3391,0.085 0.4929,0.1581 0.1568,0.0746 0.298,0.1651 0.4631,0.2173 0.1912,0.0604 0.843,0.2953 1.0361,0.2953l0.2663 0c0.3978,0 0.6947,-0.1093 0.923,-0.2901 0.16,-0.1267 0.4676,-0.5203 0.4676,-0.7748l0 -0.3846c0,-0.5156 -0.5823,-0.9743 -0.9963,-1.1337 -0.6226,-0.2398 -1.2059,-0.1163 -1.8914,-0.2389 -0.2091,-0.0373 -0.7739,-0.1042 -0.9592,-0.106 -0.2152,-0.0021 -0.6936,-0.1366 -0.8938,-0.1713 -0.3614,-0.0627 -0.53,-0.1195 -0.7312,-0.3339 -0.0913,-0.0972 -0.1493,-0.2095 -0.2317,-0.3008 -0.0887,-0.0981 -0.27,-0.0894 -0.3914,-0.1707 -0.0688,0 -0.184,0.0123 -0.1575,-0.0574l0.1279 -1.6879 0 -1.0354c0,-0.6841 -0.1083,-2.2254 -0.2773,-2.7106 -0.0691,-0.1986 -0.0773,-0.3966 -0.1137,-0.6258 -0.0312,-0.1972 -0.1154,-0.4007 -0.1649,-0.6042 -0.1022,-0.4192 -0.2336,-0.7688 -0.3486,-1.1601 -0.2005,-0.6821 -0.5717,-1.53 -0.8704,-2.1177 -0.169,-0.3325 -0.3522,-0.6589 -0.5321,-0.9766 -0.0594,-0.1049 -0.563,-0.9306 -0.563,-0.9458 0,-0.0799 0.3689,-0.3639 0.4438,-0.4141 0,-0.7 0.388,-0.9452 0.8111,-1.2302 0.4224,-0.2846 0.8223,-0.5365 1.2482,-0.8227 0.6931,-0.4659 2.1125,-0.9546 2.1125,-2.0294l0 -0.3254c0,-0.5435 -0.6126,-1.0353 -1.213,-1.0353l-0.2368 0c-0.7661,0 -1.7153,1.2565 -2.1672,1.7084 -0.2849,0.2848 -0.6673,0.7097 -0.9809,0.9421 -0.5775,0.4281 -0.411,0.5443 -1.4084,0.5443 -0.0768,0.0515 -0.3948,0.3254 -0.4734,0.3254 -0.0643,0 -0.9679,-0.8959 -1.0868,-1.0136 -0.3123,-0.3091 -0.8062,-0.6612 -1.1667,-0.9339 -0.7632,-0.5772 -1.7128,-1.16 -2.5988,-1.6024 -0.8806,-0.4396 -2.0042,-0.8793 -3.0419,-1.1593 -0.5358,-0.1446 -1.1146,-0.2778 -1.7089,-0.3917 -0.3084,-0.0591 -0.6331,-0.0751 -0.9278,-0.1374 -0.5687,-0.1203 -0.4757,0.1918 -0.4757,-0.5893 -0.2886,-0.4309 -0.4734,-0.2804 -0.4734,-1.1241 0,-0.3277 0.0509,-0.5781 0.0602,-0.8569 0.0063,-0.1899 0.0356,-0.6827 0.0697,-0.877 0.0959,-0.5466 0.2252,-1.0545 0.2252,-1.668l0 -0.2367c0,-0.7366 -0.582,-1.4495 -1.3019,-1.4495l-0.0296 0c-0.3912,0 -0.7101,0.1915 -0.9103,0.3915 -0.1409,0.1407 -0.4211,0.6315 -0.4211,0.8805z"/>
   <path id="_236885168" class="fil13" d="M137.127 104.196c0,0.1011 2.7465,1.9722 3.0556,2.2106 0.478,0.3689 1.0364,0.7485 1.5427,1.0904 0.3709,0.2505 1.169,0.9588 1.6743,0.9588l0.2071 0c0.2518,0 0.5888,-0.2339 0.718,-0.3767 0.282,-0.3115 0.1949,-0.5497 0.3294,-0.778l0.3728 -6.5365 0 -0.355c-0.7364,0.0612 -1.7633,0.3026 -2.3857,0.5138 -0.3831,0.13 -0.7285,0.2295 -1.0803,0.3694 -0.3692,0.1469 -0.6624,0.3075 -1.02,0.4593 -0.4946,0.2099 -1.4146,0.7886 -1.8242,1.1047 -0.1997,0.1541 -1.5897,1.2077 -1.5897,1.3392z"/>
   <path id="_236885096" class="fil13" d="M151.388 118.484l0 0.355c0,0.2267 1.1792,2.9221 1.352,3.3517 0.2309,0.5742 0.4724,1.1115 0.694,1.6727 0.1021,0.2586 0.6624,1.5266 0.676,1.6907 0.2219,-0.0185 1.5844,-1.1227 1.7827,-1.3238 0.5682,-0.5761 0.9776,-0.9566 1.5097,-1.5967 0.4627,-0.5567 0.8916,-1.1984 1.2583,-1.848 0.1714,-0.3036 0.9526,-1.8249 0.949,-2.1319l-6.9495 -1.1458 -0.2367 0c-0.4712,0 -1.0355,0.5356 -1.0355,0.9761z"/>
   <path id="_236885024" class="fil13" d="M133.014 113.425l-0.0116 0.7698 0.0757 1.2292 3.7231 -1.0523c0.2344,-0.1569 1.7708,-0.4941 2.1895,-0.6508 0.3649,-0.1366 0.7391,-0.174 1.0481,-0.372 0.2438,-0.1562 0.5497,-0.5003 0.5497,-0.8704l0 -0.148c0,-0.6552 -0.7895,-1.2275 -1.1757,-1.5757 -0.2355,-0.2122 -0.507,-0.414 -0.7254,-0.6355 -0.1667,-0.169 -0.5542,-0.529 -0.7323,-0.6582 -0.4761,-0.3455 -0.9671,-0.9147 -1.4553,-1.2961 -0.478,-0.3735 -0.9887,-0.9823 -1.4738,-1.3071 -0.3246,0.2173 -1.1779,2.3513 -1.3727,2.917 -0.2984,0.8663 -0.6393,2.5219 -0.6393,3.6501z"/>
   <path id="_236884952" class="fil13" d="M152.838 112.213l0 0.1479c0,1.1608 1.473,1.2709 2.3703,1.5645 0.2338,0.0765 0.5228,0.1633 0.7643,0.2121 0.2174,0.0439 0.5721,0.1947 0.747,0.2293 0.4041,0.0803 1.2743,0.4198 1.5588,0.4328l2.0939 0.6076 0.0697 -1.2418 0 -0.1775c0,-1.0159 -0.18,-1.9222 -0.323,-2.7832 -0.0592,-0.3567 -0.2039,-0.9259 -0.3192,-1.2486 -0.0756,-0.2112 -0.3934,-1.0269 -0.3934,-1.1746 -0.1337,-0.0895 -0.3532,-0.7838 -0.4789,-0.9706 -0.1645,-0.2445 -0.3849,-0.6836 -0.527,-0.9522 -0.2433,0.0567 -2.4489,2.217 -2.8996,2.544 -0.4698,0.3409 -0.9547,0.926 -1.438,1.2839 -0.1756,0.1299 -0.553,0.4843 -0.7146,0.6463 -0.215,0.2155 -0.5103,0.4668 -0.5103,0.8801z"/>
   <path id="_236884880" class="fil13" d="M142.334 127.004c0.6039,0.2897 2.8325,0.71 3.7577,0.71l1.0355 0c0.7514,0 1.4826,-0.0897 2.1126,-0.2249 0.3281,-0.0703 0.6428,-0.1134 0.9583,-0.1956 0.2652,-0.0691 0.6456,-0.2232 0.8939,-0.2895 -0.0379,-0.1626 -0.8194,-1.5405 -0.9585,-1.7632 -0.1763,-0.2825 -0.3183,-0.5836 -0.4812,-0.8797 -0.1704,-0.3097 -0.3389,-0.5736 -0.4972,-0.8932 -0.2853,-0.5758 -0.7166,-1.187 -0.9665,-1.7553 -0.2167,-0.493 -0.6949,-1.3645 -1.3868,-1.3645l-0.1184 0c-0.4314,0 -0.7182,0.1998 -0.9059,0.455 -0.1288,0.1753 -0.4167,0.6794 -0.5052,0.8853 -0.1147,0.2666 -0.3378,0.6082 -0.4834,0.8775 -0.1602,0.2964 -0.3431,0.5967 -0.5012,0.8891 -0.3214,0.5947 -0.6672,1.176 -0.9828,1.7686 -0.1616,0.3033 -0.3051,0.5891 -0.4738,0.887 -0.0824,0.1456 -0.4704,0.7935 -0.4971,0.8934z"/>
   <path id="_236884808" class="fil13" d="M133.933 118.671l-0.0903 -0.0091c0.023,0.2765 0.797,1.8792 0.9588,2.1179 0.2105,0.3106 0.3796,0.6289 0.5915,0.9468 0.212,0.3179 0.4232,0.5841 0.6509,0.8876 0.8155,1.0868 2.1034,2.1478 3.2429,2.9107 0.1007,-0.0738 1.2659,-2.9809 1.4237,-3.3689 0.231,-0.5678 1.328,-2.9571 1.328,-3.4645 0,-0.6047 -0.4985,-1.1537 -1.0948,-1.1537l-0.3547 0.0022 -6.656 1.131z"/>
   <path id="_236884736" class="fil13" d="M149.968 108.426c0.5761,0 1.2791,-0.6575 1.6805,-0.923 0.5245,-0.347 1.0326,-0.7287 1.5449,-1.0881 1.0213,-0.7164 2.0453,-1.4989 3.0768,-2.1895 -0.2038,-0.3042 -1.2277,-1.0927 -1.58,-1.3489 -0.2915,-0.212 -0.5837,-0.3761 -0.8758,-0.5739 -0.2966,-0.2008 -0.6538,-0.3377 -0.9528,-0.5265 -0.6798,-0.4293 -3.4108,-1.3667 -4.4914,-1.3667 0.1227,1.4742 0.1545,3.0336 0.2661,4.5262 0.0562,0.7527 0.0895,1.4797 0.1174,2.2788 0.0238,0.6811 0.4928,1.2116 1.2143,1.2116z"/>
   <path id="_236884664" class="fil13" d="M144.346 113.455l0.4438 2.0708c0.1595,0.0844 1.8914,0.917 1.9232,0.917 0.125,0 1.5262,-0.7586 1.8015,-0.8612 0.1642,-0.0612 0.1501,-0.2424 0.1991,-0.4518 0.0475,-0.2033 0.0819,-0.3606 0.1179,-0.5625 0.058,-0.3262 0.1694,-0.7433 0.2485,-1.0827 -0.1174,-0.1753 -1.278,-1.6566 -1.361,-1.6566l-2.012 0c-0.0837,0 -1.2465,1.456 -1.361,1.627z"/>
  </g>
 </g>
</svg>
