<?xml version="1.0" encoding="UTF-8" standalone="no"?>
<!-- Created with Inkscape (http://www.inkscape.org/) -->

<svg
   xmlns:osb="http://www.openswatchbook.org/uri/2009/osb"
   xmlns:dc="http://purl.org/dc/elements/1.1/"
   xmlns:cc="http://creativecommons.org/ns#"
   xmlns:rdf="http://www.w3.org/1999/02/22-rdf-syntax-ns#"
   xmlns:svg="http://www.w3.org/2000/svg"
   xmlns="http://www.w3.org/2000/svg"
   xmlns:sodipodi="http://sodipodi.sourceforge.net/DTD/sodipodi-0.dtd"
   xmlns:inkscape="http://www.inkscape.org/namespaces/inkscape"
   width="104mm"
   height="62mm"
   viewBox="0 0 104 62"
   version="1.1"
   id="SVGRoot"
   inkscape:version="0.92.2 (5c3e80d, 2017-08-06)"
   sodipodi:docname="kind.svg"
   inkscape:export-filename="C:\Users\benjamin\Desktop\kind.png"
   inkscape:export-xdpi="260"
   inkscape:export-ydpi="260">
  <sodipodi:namedview
     id="base"
     pagecolor="#ffffff"
     bordercolor="#666666"
     borderopacity="1.0"
     inkscape:pageopacity="0"
     inkscape:pageshadow="2"
     inkscape:zoom="2.56"
     inkscape:cx="204.75526"
     inkscape:cy="136.32029"
     inkscape:document-units="mm"
     inkscape:current-layer="layer1"
     showgrid="false"
     inkscape:window-width="2255"
     inkscape:window-height="1226"
     inkscape:window-x="1572"
     inkscape:window-y="828"
     inkscape:window-maximized="0"
     inkscape:lockguides="true"
     inkscape:snap-text-baseline="true" />
  <defs
     id="defs3699">
    <linearGradient
       id="linearGradient1972"
       osb:paint="solid">
      <stop
         style="stop-color:#000000;stop-opacity:1;"
         offset="0"
         id="stop1970" />
    </linearGradient>
    <linearGradient
       id="linearGradient1349"
       osb:paint="solid">
      <stop
         style="stop-color:#c87137;stop-opacity:1;"
         offset="0"
         id="stop1347" />
    </linearGradient>
  </defs>
  <metadata
     id="metadata3702">
    <rdf:RDF>
      <cc:Work
         rdf:about="">
        <dc:format>image/svg+xml</dc:format>
        <dc:type
           rdf:resource="http://purl.org/dc/dcmitype/StillImage" />
        <dc:title></dc:title>
      </cc:Work>
    </rdf:RDF>
  </metadata>
  <g
     id="layer1"
     inkscape:groupmode="layer"
     inkscape:label="Layer 1"
     transform="translate(-123.63222,-131.50777)">
    <text
       xml:space="preserve"
       style="font-style:normal;font-variant:normal;font-weight:normal;font-stretch:normal;font-size:5.64444447px;line-height:1.25;font-family:Roboto;-inkscape-font-specification:Roboto;letter-spacing:0px;word-spacing:0px;fill:#000000;fill-opacity:1;stroke:none;stroke-width:0.26458332"
       x="200.4655"
       y="17.770161"
       id="text1274"><tspan
         sodipodi:role="line"
         id="tspan1272"
         x="200.4655"
         y="22.960342"
         style="font-style:normal;font-variant:normal;font-weight:normal;font-stretch:normal;font-size:5.64444447px;font-family:Roboto;-inkscape-font-specification:Roboto;stroke-width:0.26458332" /></text>
    <flowRoot
       xml:space="preserve"
       id="flowRoot1324"
       style="font-style:normal;font-weight:normal;font-size:40px;line-height:1.25;font-family:sans-serif;letter-spacing:0px;word-spacing:0px;fill:#000000;fill-opacity:1;stroke:none"><flowRegion
         id="flowRegion1326"><rect
           id="rect1328"
           width="176.77669"
           height="59.396969"
           x="479.4184"
           y="875.03229" /></flowRegion><flowPara
         id="flowPara1330" /></flowRoot>    <path
       style="opacity:1;fill:#326de6;fill-opacity:1;stroke:#000000;stroke-width:0.40036592;stroke-linecap:butt;stroke-linejoin:miter;stroke-miterlimit:4;stroke-dasharray:none;stroke-opacity:1"
       d="m 130.89477,133.47351 c -9.00189,25.83698 -4.27528,50.20987 -0.49431,57.81037 h 1.3578 77.91047 1.22616 c 2.26505,-4.35927 6.73922,-12.81597 8.10149,-23.52374 h 5.08797 v 0.75233 c 0.53482,0.27431 1.02036,0.65792 1.97572,0 v -13.63195 c -0.5916,-0.39131 -1.23037,-0.50709 -1.97572,0 v 0.57381 h -5.06844 c -0.89106,-6.92113 -3.42899,-14.36342 -8.61422,-21.98082 h -0.23865 -78.89801 z m 0,2.95285 h 0.37026 78.89801 0.23865 c 4.12622,6.98937 5.81713,13.93132 6.12501,20.5709 h 2.65916 c -9e-5,-8.1e-4 -3.7e-4,-0.002 -3.7e-4,-0.003 h 4.89886 v 9.09318 h -4.90321 c 3.8e-4,-0.005 7e-4,-0.009 0.002,-0.0135 h -3.02292 c -1.00176,8.35876 -3.57342,15.97625 -5.26442,22.25625 h -1.22616 -77.91049 -1.35776 c -2.56741,-12.93583 -4.0373,-31.94037 0.49427,-51.90429 z"
       id="path5696"
       inkscape:connector-curvature="0"
       sodipodi:nodetypes="ccccccccccccccccccccccccccccccccccc" />
    <path
       style="opacity:1;fill:#326de6;fill-opacity:1;stroke:#000000;stroke-width:0.41047728;stroke-linejoin:round;stroke-miterlimit:4;stroke-dasharray:none;stroke-opacity:1"
       d="m 133.13736,168.82107 6.97528,19.35043 v -0.0156 h 63.15123 l 6.97527,-19.35046 -6.97527,0.0896 v 0.015 c -27.52909,-0.0112 -65.94577,-0.29836 -70.12651,-0.0889 z"
       id="rect5793"
       inkscape:connector-curvature="0"
       sodipodi:nodetypes="cccccccc" />
    <path
       inkscape:connector-curvature="0"
       id="path3059-6"
       d="m 182.52425,173.66375 c -0.14627,0 -0.26486,0.14173 -0.26485,0.31654 0,0.002 4.1e-4,0.006 4.1e-4,0.008 -2.1e-4,0.0238 -0.002,0.0525 -4.1e-4,0.0731 0.005,0.10086 0.0239,0.178 0.0362,0.27089 0.0223,0.19883 0.0411,0.36366 0.0294,0.51686 -0.0113,0.0577 -0.0507,0.11058 -0.086,0.14732 l -0.005,0.12053 c -0.15895,0.0143 -0.31896,0.0401 -0.47877,0.0791 -0.68769,0.16796 -1.27979,0.54902 -1.73056,1.06351 -0.0292,-0.0216 -0.0804,-0.0609 -0.0956,-0.0729 -0.0473,0.006 -0.0951,0.0227 -0.15732,-0.0165 -0.11853,-0.0859 -0.22647,-0.20428 -0.3571,-0.34699 -0.0599,-0.0682 -0.10319,-0.13327 -0.17429,-0.19907 -0.0162,-0.015 -0.0407,-0.0352 -0.0589,-0.0505 -0.0556,-0.0477 -0.12117,-0.0726 -0.18448,-0.0748 -0.0814,-0.003 -0.1598,0.0313 -0.2111,0.10042 -0.0912,0.12303 -0.0619,0.31109 0.0652,0.42006 0.002,0.002 0.003,0.002 0.004,0.003 0.0174,0.0153 0.0388,0.0347 0.0549,0.0475 0.0755,0.0599 0.14439,0.0906 0.21957,0.13819 0.15841,0.10523 0.28973,0.19249 0.39388,0.2977 0.0406,0.0467 0.0478,0.12881 0.0533,0.16436 l 0.0849,0.0816 c -0.45443,0.73564 -0.66474,1.64434 -0.54046,2.57022 l -0.11091,0.0347 c -0.0292,0.0407 -0.0705,0.10455 -0.11376,0.12356 -0.13628,0.0461 -0.28964,0.0631 -0.47479,0.084 -0.0869,0.008 -0.16196,0.003 -0.25412,0.0219 -0.0202,0.006 -0.0486,0.0119 -0.0708,0.0175 -5.6e-4,1.4e-4 -0.002,4.2e-4 -0.002,4.2e-4 -0.002,2.3e-4 -0.003,6.3e-4 -0.004,0.002 -0.1561,0.0407 -0.25639,0.19492 -0.22411,0.347 0.0323,0.15211 0.18479,0.24461 0.34182,0.20821 0.002,-2.1e-4 0.003,-2.1e-4 0.005,-6.4e-4 0.002,-4.1e-4 0.004,-0.002 0.005,-0.002 0.0219,-0.006 0.0493,-0.0112 0.0685,-0.0164 0.0906,-0.0261 0.15623,-0.0646 0.2377,-0.098 0.17524,-0.0676 0.32038,-0.12408 0.46178,-0.14609 0.0591,-0.006 0.12128,0.0392 0.15223,0.0578 l 0.11545,-0.0215 c 0.26567,0.88604 0.82242,1.6022 1.5274,2.05157 l -0.0481,0.12418 c 0.0172,0.0482 0.0365,0.11348 0.0236,0.16109 -0.0515,0.14341 -0.13947,0.29476 -0.23973,0.46351 -0.0486,0.0778 -0.0982,0.13845 -0.14205,0.22767 -0.0106,0.0214 -0.0238,0.0541 -0.0339,0.0767 -0.0681,0.15668 -0.0182,0.33712 0.11262,0.40483 0.13158,0.0681 0.2949,-0.004 0.36558,-0.1607 1.2e-4,-2.1e-4 3.9e-4,-4.3e-4 4e-4,-6.2e-4 8e-5,-1.5e-4 -6e-5,-4.3e-4 0,-4.3e-4 0.0103,-0.0223 0.0243,-0.0515 0.0329,-0.0724 0.0375,-0.0925 0.0499,-0.17174 0.0764,-0.26117 0.07,-0.18937 0.10857,-0.38803 0.20504,-0.51184 0.0265,-0.034 0.0695,-0.0469 0.11413,-0.0599 l 0.0599,-0.11688 c 0.61459,0.25376 1.30253,0.32186 1.98976,0.15401 0.15677,-0.0383 0.30811,-0.0879 0.45441,-0.14732 0.0169,0.0322 0.0482,0.0939 0.0566,0.10958 0.0454,0.0159 0.0949,0.024 0.13526,0.0882 0.0722,0.13265 0.12154,0.28956 0.18166,0.4791 0.0264,0.0895 0.0395,0.16869 0.0769,0.26118 0.008,0.0211 0.0228,0.0507 0.0329,0.073 0.0705,0.15749 0.23437,0.2296 0.36614,0.16132 0.13075,-0.0678 0.18072,-0.24818 0.11263,-0.40485 -0.0103,-0.0227 -0.024,-0.0553 -0.0345,-0.0767 -0.0438,-0.0891 -0.0936,-0.14911 -0.14205,-0.22707 -0.10026,-0.16874 -0.18345,-0.30892 -0.23486,-0.45232 -0.0216,-0.0738 0.004,-0.11995 0.0203,-0.16801 -0.0103,-0.0124 -0.0315,-0.0822 -0.0442,-0.11506 0.73265,-0.46536 1.27305,-1.2082 1.52683,-2.06618 0.0343,0.006 0.0939,0.0171 0.11319,0.0213 0.0399,-0.0283 0.0765,-0.065 0.14826,-0.059 0.14142,0.022 0.28655,0.0785 0.46179,0.14611 0.0815,0.0336 0.14709,0.0725 0.2377,0.0986 0.0191,0.006 0.0466,0.0112 0.0685,0.0159 0.002,4.3e-4 0.004,0.002 0.005,0.002 0.002,2.2e-4 0.003,2.2e-4 0.005,4.4e-4 0.15704,0.0364 0.30956,-0.0561 0.3418,-0.20821 0.0323,-0.15208 -0.068,-0.30647 -0.22409,-0.347 -0.0228,-0.006 -0.0549,-0.0151 -0.0769,-0.0196 -0.0922,-0.0187 -0.16717,-0.0141 -0.2541,-0.0219 -0.18515,-0.0209 -0.33852,-0.0378 -0.4748,-0.084 -0.0555,-0.0231 -0.0951,-0.0943 -0.11431,-0.12357 l -0.10696,-0.0335 c 0.0555,-0.43158 0.0405,-0.88075 -0.0555,-1.33017 -0.0969,-0.45359 -0.26802,-0.86846 -0.4963,-1.23397 0.0274,-0.0268 0.0793,-0.0762 0.094,-0.0907 0.005,-0.0512 4.1e-4,-0.10477 0.0498,-0.16134 0.10416,-0.10522 0.23547,-0.19245 0.39387,-0.29768 0.0752,-0.0477 0.14469,-0.0782 0.22013,-0.13819 0.0171,-0.0135 0.0403,-0.0351 0.0583,-0.0505 0.12704,-0.10902 0.15629,-0.29705 0.0652,-0.42006 -0.0913,-0.12299 -0.26797,-0.13458 -0.39501,-0.0256 -0.018,0.0155 -0.0426,0.0355 -0.0589,0.0505 -0.0711,0.0658 -0.11502,0.1308 -0.17488,0.19907 -0.1306,0.14272 -0.23857,0.26177 -0.3571,0.34762 -0.0515,0.0322 -0.12657,0.0211 -0.1607,0.019 l -0.10077,0.0773 c -0.57439,-0.64796 -1.35648,-1.06221 -2.19857,-1.14269 -0.002,-0.038 -0.005,-0.10656 -0.005,-0.12722 -0.0345,-0.0355 -0.0761,-0.0658 -0.0866,-0.14245 -0.0115,-0.15321 0.007,-0.31802 0.03,-0.51685 0.0123,-0.0929 0.0328,-0.17007 0.0362,-0.27091 5.6e-4,-0.0228 -4.1e-4,-0.0562 -4.2e-4,-0.081 -2e-5,-0.17482 -0.11859,-0.31657 -0.26484,-0.31656 z m -0.33163,2.20982 -0.0786,1.49454 -0.005,0.003 c -0.005,0.13368 -0.10756,0.24045 -0.23316,0.24045 -0.0515,0 -0.0989,-0.0179 -0.13752,-0.048 l -0.002,0.002 -1.13918,-0.86871 c 0.35011,-0.37035 0.79794,-0.64405 1.31405,-0.77009 0.0943,-0.023 0.1885,-0.0401 0.28239,-0.0525 z m 0.66383,0 c 0.60255,0.0798 1.1598,0.37323 1.58682,0.82307 l -1.13184,0.86322 -0.005,-0.002 c -0.10046,0.079 -0.24198,0.0593 -0.32029,-0.0464 -0.0321,-0.0432 -0.0488,-0.0941 -0.051,-0.1455 l -0.002,-4.1e-4 z m -2.67339,1.38069 1.04016,1.00082 -0.002,0.006 c 0.0939,0.0878 0.10772,0.24015 0.0295,0.34577 -0.0321,0.0432 -0.075,0.0723 -0.12112,0.0859 l -0.002,0.006 -1.33329,0.41396 c -0.0678,-0.6675 0.0784,-1.31637 0.38709,-1.85734 z m 4.67502,4.4e-4 c 0.15453,0.26944 0.27158,0.57042 0.34123,0.89671 0.0689,0.32237 0.0861,0.64416 0.0578,0.95516 l -1.34008,-0.4152 -0.002,-0.006 c -0.12,-0.0353 -0.19374,-0.16658 -0.1658,-0.2983 0.0114,-0.0538 0.0381,-0.0996 0.074,-0.1333 l -4e-4,-0.003 1.03449,-0.99595 z m -2.54718,1.07751 h 0.42613 l 0.26484,0.35611 -0.0951,0.44442 -0.38256,0.19784 -0.38369,-0.19845 -0.0951,-0.44441 z m 1.36612,1.21875 c 0.0181,-6.2e-4 0.0361,6.3e-4 0.0536,0.004 l 0.002,-0.003 1.37913,0.25082 c -0.20182,0.61001 -0.58805,1.13844 -1.10409,1.49209 l -0.53537,-1.39104 0.002,-0.002 c -0.0492,-0.12292 4e-5,-0.26708 0.11318,-0.32569 0.029,-0.0151 0.0592,-0.0233 0.0894,-0.0249 z m -2.3163,0.006 c 0.10526,0.002 0.19966,0.0802 0.22412,0.19542 0.0114,0.0538 0.005,0.10746 -0.0131,0.15462 l 0.005,0.006 -0.5297,1.37703 c -0.49524,-0.34187 -0.88969,-0.85372 -1.10069,-1.48174 l 1.36725,-0.2496 0.002,0.003 c 0.0153,-0.003 0.0308,-0.006 0.0459,-0.006 z m 1.15504,0.60329 c 0.0367,-0.002 0.0739,0.006 0.10922,0.0249 0.0463,0.024 0.0822,0.0619 0.10469,0.10712 h 0.005 l 0.674,1.31007 c -0.0875,0.0316 -0.17741,0.0585 -0.26938,0.081 -0.51547,0.12588 -1.02931,0.0878 -1.49458,-0.0829 l 0.6723,-1.30762 h 0.002 c 0.0403,-0.0811 0.11684,-0.12952 0.19749,-0.13272 z"
       style="color:#000000;font-style:normal;font-variant:normal;font-weight:normal;font-stretch:normal;font-size:medium;line-height:normal;font-family:Sans;-inkscape-font-specification:Sans;text-indent:0;text-align:start;text-decoration:none;text-decoration-line:none;letter-spacing:normal;word-spacing:normal;text-transform:none;writing-mode:lr-tb;direction:ltr;baseline-shift:baseline;text-anchor:start;display:inline;overflow:visible;visibility:visible;fill:#ffffff;fill-opacity:1;stroke:#000000;stroke-width:0.07728259;stroke-miterlimit:4;stroke-dasharray:none;stroke-opacity:1;marker:none;enable-background:accumulate"
       sodipodi:nodetypes="ccccccccsccccscssccsccccccccscccsccccccccccccccscccscsccsccccscscsccccccccscccscsccccsccccscscscccccccccccccccscccsccccccccccccscccccscccccccccccccccccccccccscccscccccccccscccscccc"
       inkscape:export-filename="./path3059.png"
       inkscape:export-xdpi="250.55"
       inkscape:export-ydpi="250.55" />
    <rect
       style="fill:#326de6;fill-opacity:1;stroke:#000000;stroke-width:0.34200066;stroke-miterlimit:4;stroke-dasharray:none;stroke-opacity:1"
       id="rect5811-5"
       width="18.686016"
       height="7.3740296"
       x="180.62003"
       y="161.42528" />
    <rect
       style="fill:#326de6;fill-opacity:1;stroke:#000000;stroke-width:0.34200066;stroke-miterlimit:4;stroke-dasharray:none;stroke-opacity:1"
       id="rect5811-64-1"
       width="18.686016"
       height="7.3740301"
       x="180.62003"
       y="153.8782" />
    <g
       aria-label="kind"
       style="font-style:normal;font-variant:normal;font-weight:bold;font-stretch:normal;font-size:10.58333302px;line-height:1.25;font-family:Roboto;-inkscape-font-specification:'Roboto, Bold';font-variant-ligatures:normal;font-variant-caps:normal;font-variant-numeric:normal;font-feature-settings:normal;text-align:start;letter-spacing:0px;word-spacing:0px;writing-mode:lr-tb;text-anchor:start;fill:#000000;fill-opacity:1;stroke:none;stroke-width:0.26458332"
       id="text5801"
       transform="matrix(1.0314338,0,0,1.11701,-4.119733,-24.294483)">
      <path
         d="m 157.04275,183.15675 h -0.41341 v 2.34095 h -1.50895 v -7.53236 l 1.50895,-0.52917 v 4.57337 h 0.37207 l 1.29708,-2.10323 h 1.74666 l -1.788,2.53214 2.06189,3.05925 h -1.73116 z"
         style="stroke-width:0.26458332"
         id="path5989"
         inkscape:connector-curvature="0"
         sodipodi:nodetypes="cccccccccccccc" />
      <path
         d="m 162.37059,185.4977 h -1.50895 v -5.59139 h 1.50895 z m 0,-6.92981 h -1.50895 v -0.60255 l 1.50895,-0.52917 z"
         style="stroke-width:0.26458332"
         id="path5991"
         inkscape:connector-curvature="0"
         sodipodi:nodetypes="cccccccccc" />
      <path
         d="m 164.99575,179.90631 0.0467,0.50573 c 0.49723,-0.31208 1.06276,-0.60406 1.62243,-0.60909 0.565,0 1.00597,0.17742 1.32292,0.53227 0.31695,0.35485 0.47542,0.91123 0.47542,1.66915 v 3.49333 h -1.51412 v -3.48816 c 0,-0.37552 -0.0758,-0.64079 -0.22737,-0.79582 -0.15159,-0.15847 -0.38069,-0.23771 -0.6873,-0.23771 -0.41264,0.001 -0.68732,0.20655 -0.93534,0.46509 v 4.0566 h -1.50896 v -5.59139 z"
         style="stroke-width:0.26458332"
         id="path5993"
         inkscape:connector-curvature="0"
         sodipodi:nodetypes="cccssccsccccccc" />
      <path
         d="m 169.35724,182.74851 c 0,-0.88195 0.18948,-1.59336 0.56844,-2.13424 0.38241,-0.54088 0.91984,-0.81132 1.61231,-0.81132 0.56644,0.0222 0.89494,-0.0452 1.34359,0.16847 v -2.00608 l 1.51412,-0.52917 v 8.06153 c -0.99316,0.0374 -2.20286,0.0891 -2.86805,0.10852 -0.68557,0 -1.21956,-0.25149 -1.60197,-0.75448 -0.37896,-0.50299 -0.56844,-1.16789 -0.56844,-1.99471 z m 1.50379,0.10852 c 0,0.48921 0.0827,0.87506 0.24804,1.15755 0.16537,0.27905 0.43409,0.41858 0.80616,0.41858 0.21704,0 0.40652,-0.0431 0.56844,-0.12919 0.16192,-0.0896 0.29456,-0.21876 0.39791,-0.38757 v -2.38229 c -0.10335,-0.1757 -0.23599,-0.31178 -0.39791,-0.40824 -0.15847,-0.0999 -0.34451,-0.14986 -0.55811,-0.14986 -0.36863,0 -0.63907,0.16364 -0.81132,0.49092 -0.16881,0.32729 -0.25321,0.75448 -0.25321,1.28158 z"
         style="stroke-width:0.26458332"
         id="path5995"
         inkscape:connector-curvature="0"
         sodipodi:nodetypes="sccccccccssscsccccscss" />
    </g>
    <rect
       style="fill:#326de6;fill-opacity:1;stroke:#000000;stroke-width:0.34200066;stroke-miterlimit:4;stroke-dasharray:none;stroke-opacity:1"
       id="rect5811-5-9"
       width="18.686018"
       height="7.3740301"
       x="161.93401"
       y="161.42528" />
    <rect
       style="fill:#326de6;fill-opacity:1;stroke:#000000;stroke-width:0.34200066;stroke-miterlimit:4;stroke-dasharray:none;stroke-opacity:1"
       id="rect5811-64-1-1"
       width="18.686018"
       height="7.3740306"
       x="161.93401"
       y="153.8782" />
    <rect
       style="fill:#326de6;fill-opacity:1;stroke:#000000;stroke-width:0.34200066;stroke-miterlimit:4;stroke-dasharray:none;stroke-opacity:1"
       id="rect5811-5-9-1"
       width="18.686018"
       height="7.3740306"
       x="143.24799"
       y="161.42528" />
    <rect
       style="fill:#326de6;fill-opacity:1;stroke:#000000;stroke-width:0.34200066;stroke-miterlimit:4;stroke-dasharray:none;stroke-opacity:1"
       id="rect5811-64-1-1-6"
       width="18.686018"
       height="7.3740315"
       x="143.24799"
       y="153.8782" />
  </g>
</svg>
